<svg xmlns="http://www.w3.org/2000/svg" xmlns:xlink="http://www.w3.org/1999/xlink" version="1.1" x="0px" y="0px" viewBox="0 0 90 112.5" enable-background="new 0 0 90 90" xml:space="preserve"><g><path fill="#000000" d="M-998.7,768.7h-21.9v-8.4c0,0-2.7,0-2.7,0v8.4v12.4c2.3,0,4.2,1.6,4.6,3.8h2.7c-0.1-0.4-0.1-0.9-0.1-1.3   c0-4.1,3.4-7.5,7.5-7.5c4.1,0,7.5,3.4,7.5,7.5c0,0.5,0,0.9-0.1,1.3h2.7L-998.7,768.7L-998.7,768.7z"/><path fill="#000000" d="M-1008.7,778.1c-3,0-5.5,2.5-5.5,5.5c0,0.5,0.1,0.9,0.2,1.3c0.6,2.4,2.7,4.1,5.3,4.1c2.6,0,4.7-1.8,5.3-4.1   c0.1-0.4,0.2-0.9,0.2-1.3C-1003.3,780.5-1005.7,778.1-1008.7,778.1z M-1008.7,785.9c-0.8,0-1.5-0.4-2-1c-0.3-0.4-0.4-0.8-0.4-1.3   c0-1.3,1.1-2.4,2.4-2.4c1.3,0,2.4,1.1,2.4,2.4c0,0.5-0.2,1-0.4,1.3C-1007.2,785.5-1007.9,785.9-1008.7,785.9z"/><path fill="#000000" d="M-1020.1,784.9c-0.4-1.4-1.6-2.5-3.2-2.5h0c-1.8,0-3.3,1.5-3.3,3.3c0,1.8,1.5,3.3,3.3,3.3s3.3-1.5,3.3-3.3   C-1020,785.4-1020.1,785.1-1020.1,784.9z M-1022.3,785.7c0,0.6-0.5,1-1,1c-0.6,0-1-0.5-1-1s0.5-1,1-1h0c0.2,0,0.4,0.1,0.6,0.2   C-1022.5,785.1-1022.3,785.4-1022.3,785.7z"/><g><polygon fill="#000000" points="-999.1,771 -1001,769.1 -997.4,765.6 -995.5,767.5   "/></g></g><polygon fill="#000000" points="-1022,747.7 -1038.6,754.7 -1037.8,758.1 -1029.8,758.1 -1028,754.7 -1026.1,758.1 -1017.8,758.1   -1016,754.7 -1014.1,758.1 -1006.2,758.1 -1005.3,754.7 "/><g><path d="M72.9,35H20.1c-2.2,0-4,1.8-4,4v18c0,2.2,1.8,4,4,4h52.9c2.2,0,4-1.8,4-4v-4.5V46h0v-7C76.9,36.8,75.1,35,72.9,35z"/><polygon points="21,74 22.9,74 27.1,64 21,64  "/><polygon points="70.1,74 72,74 72,64 66,64  "/><path d="M72,27.2c0-3.1-0.1-4.8-2.3-5.8l-4.7-2c-2.2-1-4.8,0.1-5.8,2.3L55,31.6h17V27.2z"/></g><text x="0" y="105" fill="#000000" font-size="5px" font-weight="bold" font-family="'Helvetica Neue', Helvetica, Arial-Unicode, Arial, Sans-serif">Created by Kelly Carnes</text><text x="0" y="110" fill="#000000" font-size="5px" font-weight="bold" font-family="'Helvetica Neue', Helvetica, Arial-Unicode, Arial, Sans-serif">from the Noun Project</text></svg>