<svg xmlns="http://www.w3.org/2000/svg" xmlns:xlink="http://www.w3.org/1999/xlink" version="1.1" x="0px" y="0px" viewBox="0 0 100 125" enable-background="new 0 0 100 100" xml:space="preserve"><g><path d="M87.036,5l-2.074,11.759c-0.137-0.024-0.274-0.043-0.419-0.043s-0.286,0.019-0.424,0.043L82.046,5   c-3.907,0.688-6.515,4.415-5.825,8.32c0.534,3.044,2.92,5.275,5.793,5.799C82.013,19.167,82,19.211,82,19.259v37.584   c0,2.469-1.523,4.581-3.679,5.46c-1.146-5.928-5.624-11.069-12.014-14.346c0.013-0.1,0.032-0.198,0.032-0.3v-7.866   c0-0.169-0.02-0.332-0.05-0.49c2.461-0.991,4.204-3.391,4.204-6.209c0-3.701-2.998-6.698-6.697-6.698   c-3.7,0-6.698,2.998-6.698,6.698c0,2.818,1.743,5.218,4.206,6.209c-0.032,0.158-0.051,0.321-0.051,0.49v6.09   c-3.457-1.094-7.259-1.702-11.254-1.702c-3.994,0-7.797,0.608-11.256,1.702v-6.09c0-0.169-0.019-0.332-0.048-0.49   c2.462-0.991,4.205-3.391,4.205-6.209c0-3.701-3.001-6.698-6.699-6.698s-6.697,2.998-6.697,6.698c0,2.818,1.743,5.218,4.205,6.209   c-0.031,0.158-0.05,0.321-0.05,0.49v7.866c0,0.102,0.019,0.2,0.03,0.301c-6.387,3.277-10.864,8.417-12.009,14.345   c-2.155-0.879-3.68-2.991-3.68-5.46V19.259c0-0.047-0.012-0.092-0.015-0.14c2.872-0.524,5.257-2.755,5.794-5.797   C24.47,9.415,21.861,5.69,17.953,5L15.88,16.759c-0.138-0.024-0.278-0.043-0.422-0.043c-0.144,0-0.283,0.019-0.421,0.043L12.964,5   c-3.908,0.688-6.515,4.415-5.826,8.32c0.537,3.044,2.921,5.275,5.793,5.799c-0.003,0.047-0.015,0.092-0.015,0.14v37.584   c0,5.245,3.695,9.639,8.619,10.724c0.148,1.021,0.422,2.008,0.762,2.979l-6.765,2.223c-1.044,0.341-1.75,1.316-1.75,2.413v4.002   c0,1.405,1.139,2.543,2.542,2.543c1.404,0,2.542-1.138,2.542-2.543v-2.159l5.809-1.909c0.783,1.091,1.701,2.12,2.721,3.086   l-5.667,1.85c-1.045,0.342-1.753,1.316-1.753,2.417v4.002c0,1.405,1.139,2.543,2.542,2.543c1.403,0,2.542-1.138,2.542-2.543v-2.156   l7.353-2.401c1.137,0.653,2.335,1.254,3.599,1.776l-7.143,2.354c-1.042,0.343-1.747,1.317-1.747,2.414v4.002   c0,1.403,1.138,2.541,2.542,2.541s2.543-1.138,2.543-2.541v-2.164l12.854-4.236c1.608,0.207,3.251,0.338,4.938,0.338   s3.33-0.131,4.938-0.338l12.855,4.236v2.164c0,1.403,1.138,2.541,2.541,2.541c1.405,0,2.543-1.138,2.543-2.541v-4.002   c0-1.097-0.705-2.071-1.748-2.414l-7.14-2.354c1.261-0.522,2.461-1.123,3.597-1.776l7.354,2.401v2.156   c0,1.405,1.136,2.543,2.541,2.543s2.543-1.138,2.543-2.543v-4.002c0-1.101-0.707-2.075-1.753-2.417l-5.667-1.85   c1.021-0.966,1.939-1.995,2.72-3.086l5.812,1.909v2.159c0,1.405,1.138,2.543,2.541,2.543c1.405,0,2.543-1.138,2.543-2.543v-4.002   c0-1.097-0.705-2.072-1.75-2.413l-6.765-2.223c0.339-0.972,0.612-1.959,0.763-2.979c4.921-1.085,8.616-5.479,8.616-10.724V19.259   c0-0.047-0.011-0.092-0.013-0.14c2.87-0.524,5.254-2.755,5.791-5.797C93.552,9.415,90.943,5.69,87.036,5z M63.797,30.392   c1.491,0,2.7,1.209,2.7,2.7c0,1.491-1.209,2.7-2.7,2.7s-2.701-1.209-2.701-2.7C61.096,31.601,62.306,30.392,63.797,30.392z    M36.202,30.392c1.491,0,2.701,1.209,2.701,2.7c0,1.491-1.21,2.7-2.701,2.7s-2.7-1.209-2.7-2.7   C33.502,31.601,34.711,30.392,36.202,30.392z M26.445,65.288c0-8.836,10.568-16.026,23.555-16.026   c12.988,0,23.557,7.19,23.557,16.026S62.988,81.311,50,81.311C37.013,81.311,26.445,74.124,26.445,65.288z"/><circle cx="54.599" cy="54.02" r="1.986"/><circle cx="54.599" cy="61.458" r="1.986"/><circle cx="54.599" cy="68.899" r="1.986"/><circle cx="54.599" cy="76.336" r="1.986"/><circle cx="45.401" cy="54.02" r="1.986"/><circle cx="45.401" cy="61.458" r="1.986"/><circle cx="45.401" cy="68.899" r="1.986"/><circle cx="45.401" cy="76.336" r="1.986"/><path d="M63.797,56.006c-1.1,0-1.987,0.889-1.987,1.987c0,1.097,0.888,1.985,1.987,1.985c1.095,0,1.986-0.889,1.986-1.985   C65.783,56.895,64.892,56.006,63.797,56.006z"/><path d="M63.797,63.482c-1.1,0-1.987,0.89-1.987,1.988c0,1.096,0.888,1.985,1.987,1.985c1.095,0,1.986-0.89,1.986-1.985   C65.783,64.372,64.892,63.482,63.797,63.482z"/><path d="M63.797,70.96c-1.1,0-1.987,0.891-1.987,1.987s0.888,1.986,1.987,1.986c1.095,0,1.986-0.89,1.986-1.986   S64.892,70.96,63.797,70.96z"/><circle cx="36.202" cy="57.992" r="1.986"/><circle cx="36.202" cy="65.469" r="1.987"/><circle cx="36.202" cy="72.947" r="1.987"/></g><text x="0" y="115" fill="#000000" font-size="5px" font-weight="bold" font-family="'Helvetica Neue', Helvetica, Arial-Unicode, Arial, Sans-serif">Created by Tugrul Peker</text><text x="0" y="120" fill="#000000" font-size="5px" font-weight="bold" font-family="'Helvetica Neue', Helvetica, Arial-Unicode, Arial, Sans-serif">from the Noun Project</text></svg>