<svg xmlns="http://www.w3.org/2000/svg" xmlns:xlink="http://www.w3.org/1999/xlink" version="1.1" x="0px" y="0px" viewBox="0 0 100 125" enable-background="new 0 0 100 100" xml:space="preserve"><path d="M45.039,84.046c4.994,2.336,10.329,3.534,15.88,3.534c20.722,0,37.581-16.859,37.581-37.581  c0-20.721-16.859-37.579-37.581-37.579S23.338,29.278,23.338,49.999c0,1.142,0.058,2.298,0.167,3.457  c-0.42-0.032-0.85,0.096-1.171,0.418L7.502,68.703c0,0-0.001,0-0.001,0.001l-5.562,5.563c-0.585,0.586-0.585,1.536,0,2.121  C9.156,83.605,18.75,87.58,28.956,87.58C34.604,87.579,40.063,86.356,45.039,84.046z M60.919,15.42  c19.068,0,34.581,15.512,34.581,34.579c0,19.068-15.513,34.581-34.581,34.581c-4.326,0-8.512-0.781-12.481-2.326  c1.308-0.778,2.569-1.643,3.786-2.581c0.114-0.087,0.226-0.176,0.339-0.265c0.467-0.369,0.926-0.749,1.377-1.141  c0.139-0.12,0.28-0.238,0.417-0.36c0.55-0.491,1.092-0.994,1.617-1.519c7.218-7.214,11.193-16.81,11.193-27.019  c0-10.208-3.975-19.805-11.193-27.021c-0.586-0.586-1.535-0.586-2.121,0l-5.562,5.562v0h0L33.464,42.75  c-0.584,0.584-0.585,1.532-0.002,2.118c0.3,0.302,0.566,0.628,0.797,0.975c0.692,1.039,1.064,2.257,1.064,3.53  c0,0.212-0.011,0.422-0.031,0.63c-0.144,1.457-0.78,2.813-1.827,3.871c-0.301,0.3-0.626,0.566-0.972,0.797  c-1.037,0.693-2.258,1.065-3.538,1.067c-0.361,0-0.722-0.035-1.078-0.097c-0.018-0.003-0.035-0.005-0.053-0.008  c-0.355-0.065-0.705-0.16-1.044-0.284c-0.007-0.002-0.014-0.005-0.021-0.007c-0.28-1.791-0.421-3.584-0.421-5.343  C26.338,30.932,41.851,15.42,60.919,15.42z M50.689,32.779c0.054,0.071,0.111,0.14,0.165,0.211c0.406,0.541,0.787,1.097,1.149,1.663  c0.07,0.11,0.141,0.22,0.209,0.331c0.351,0.566,0.683,1.142,0.99,1.729c0.051,0.098,0.099,0.198,0.149,0.297  c0.315,0.62,0.613,1.248,0.878,1.89c0,0,0,0.001,0,0.002c0.266,0.642,0.5,1.297,0.715,1.959c0.034,0.104,0.07,0.207,0.103,0.311  c0.199,0.635,0.372,1.278,0.523,1.928c0.029,0.125,0.057,0.25,0.084,0.375c0.144,0.659,0.268,1.323,0.363,1.994  c0.012,0.086,0.021,0.174,0.032,0.261c0.087,0.663,0.153,1.331,0.192,2.003c0.002,0.046,0.007,0.091,0.01,0.137l-9.514,0.001  l-8.537,0c-0.003-0.019-0.009-0.037-0.012-0.056c-0.05-0.297-0.117-0.589-0.194-0.879c-0.021-0.081-0.044-0.16-0.067-0.24  c-0.091-0.306-0.191-0.608-0.313-0.903c-0.005-0.012-0.011-0.023-0.016-0.035c-0.119-0.285-0.256-0.561-0.402-0.833  c-0.04-0.073-0.08-0.145-0.121-0.217c-0.16-0.278-0.329-0.552-0.519-0.814l12.763-12.771c0.03,0.034,0.058,0.068,0.088,0.102  C49.857,31.73,50.283,32.249,50.689,32.779z M56.052,53.013c-0.011,0.086-0.02,0.173-0.031,0.259  c-0.096,0.673-0.22,1.338-0.364,1.998c-0.027,0.124-0.054,0.247-0.083,0.37c-0.152,0.651-0.325,1.296-0.524,1.932  c-0.032,0.103-0.067,0.204-0.101,0.305c-0.432,1.326-0.966,2.615-1.597,3.858c-0.049,0.096-0.096,0.194-0.146,0.29  c-0.309,0.59-0.641,1.168-0.994,1.736c-0.067,0.107-0.135,0.214-0.203,0.321c-0.364,0.568-0.746,1.126-1.153,1.668  c-0.053,0.07-0.109,0.139-0.163,0.208c-0.406,0.531-0.832,1.049-1.28,1.553c-0.03,0.034-0.059,0.069-0.089,0.103L36.559,54.847  c0.03-0.042,0.053-0.087,0.082-0.129c0.132-0.189,0.252-0.384,0.37-0.581c0.055-0.094,0.115-0.185,0.167-0.28  c0.156-0.286,0.299-0.577,0.424-0.877c0.004-0.01,0.01-0.019,0.014-0.028c0.127-0.309,0.234-0.625,0.328-0.947  c0.031-0.105,0.053-0.212,0.08-0.319c0.056-0.22,0.107-0.441,0.147-0.666c0.009-0.05,0.024-0.098,0.033-0.148l8.534,0l9.518-0.001  c-0.002,0.045-0.007,0.091-0.01,0.136C56.205,51.681,56.14,52.349,56.052,53.013z M45.544,71.106  c-0.069,0.053-0.137,0.109-0.208,0.162c-0.542,0.407-1.099,0.788-1.666,1.151c-0.109,0.07-0.218,0.14-0.329,0.208  c-0.565,0.351-1.14,0.682-1.727,0.989c-0.102,0.053-0.205,0.103-0.308,0.155c-0.609,0.309-1.227,0.602-1.857,0.863  c-0.018,0.008-0.036,0.015-0.054,0.022c-0.625,0.258-1.263,0.486-1.907,0.697c-0.117,0.038-0.233,0.079-0.35,0.115  c-0.623,0.195-1.255,0.365-1.893,0.514c-0.139,0.032-0.278,0.063-0.417,0.093c-0.646,0.141-1.298,0.263-1.958,0.357  c-0.1,0.014-0.201,0.024-0.302,0.037c-0.647,0.085-1.3,0.149-1.958,0.188c-0.051,0.003-0.102,0.008-0.154,0.011l-0.001-9.517  l-0.001-8.536c0.051-0.008,0.1-0.024,0.15-0.033c0.226-0.04,0.448-0.091,0.669-0.147c0.107-0.027,0.215-0.049,0.321-0.08  c0.307-0.09,0.61-0.193,0.905-0.314c0.02-0.008,0.04-0.014,0.06-0.022c0.303-0.126,0.598-0.271,0.887-0.429  c0.101-0.055,0.198-0.119,0.297-0.178c0.191-0.113,0.379-0.23,0.562-0.358c0.043-0.03,0.09-0.054,0.132-0.084l12.762,12.765  c-0.033,0.03-0.068,0.058-0.102,0.087C46.596,70.272,46.076,70.699,45.544,71.106z M23.479,56.971  c0.385,0.279,0.795,0.514,1.214,0.729c0.016,0.009,0.03,0.022,0.046,0.031c0.052,0.026,0.107,0.044,0.159,0.069  c0.248,0.12,0.499,0.23,0.757,0.328c0.083,0.031,0.166,0.058,0.25,0.086c0.254,0.087,0.51,0.167,0.771,0.232  c0.109,0.028,0.22,0.049,0.33,0.073c0.15,0.032,0.297,0.075,0.449,0.099l0.001,8.536l0.001,9.517  c-0.041-0.002-0.082-0.006-0.123-0.009c-0.678-0.04-1.351-0.105-2.019-0.194c-0.086-0.011-0.174-0.02-0.26-0.032  c-0.672-0.095-1.337-0.22-1.996-0.364c-0.124-0.027-0.248-0.055-0.372-0.083c-0.65-0.152-1.294-0.325-1.93-0.524  c-0.104-0.033-0.206-0.069-0.309-0.103c-1.325-0.432-2.613-0.966-3.856-1.597c-0.096-0.049-0.194-0.096-0.29-0.146  c-0.59-0.309-1.169-0.642-1.737-0.995c-0.106-0.066-0.212-0.134-0.318-0.202c-0.569-0.365-1.129-0.748-1.673-1.157  c-0.067-0.051-0.133-0.104-0.2-0.156c-0.536-0.411-1.059-0.841-1.567-1.293c-0.031-0.028-0.064-0.054-0.095-0.082L23.479,56.971z   M5.143,75.306l3.444-3.446c0.001,0.001,0.002,0.002,0.003,0.003c0.055,0.049,0.112,0.095,0.167,0.144  c0.309,0.276,0.62,0.548,0.938,0.81c0.135,0.111,0.275,0.216,0.412,0.325c0.242,0.193,0.484,0.387,0.731,0.571  c0.16,0.119,0.323,0.231,0.484,0.347c0.23,0.165,0.46,0.331,0.694,0.489c0.174,0.118,0.352,0.229,0.528,0.343  c0.227,0.146,0.453,0.293,0.684,0.434c0.186,0.113,0.374,0.221,0.562,0.33c0.226,0.13,0.452,0.261,0.681,0.386  c0.195,0.106,0.393,0.208,0.59,0.31c0.226,0.117,0.453,0.233,0.682,0.344c0.204,0.099,0.409,0.194,0.615,0.288  c0.227,0.104,0.455,0.205,0.684,0.303c0.212,0.091,0.426,0.179,0.64,0.265c0.227,0.091,0.456,0.179,0.685,0.264  c0.219,0.082,0.439,0.162,0.661,0.238c0.228,0.079,0.457,0.154,0.687,0.227c0.227,0.072,0.454,0.144,0.683,0.21  s0.458,0.129,0.688,0.19c0.233,0.063,0.466,0.125,0.701,0.181c0.23,0.055,0.462,0.105,0.694,0.155  c0.237,0.051,0.474,0.104,0.713,0.149c0.234,0.045,0.47,0.083,0.706,0.122c0.239,0.04,0.477,0.082,0.717,0.116  c0.245,0.035,0.491,0.062,0.736,0.09c0.233,0.027,0.466,0.059,0.7,0.081c0.273,0.026,0.547,0.042,0.821,0.06  c0.209,0.014,0.417,0.033,0.627,0.043c0.426,0.021,0.854,0.029,1.283,0.031c0.057,0,0.113,0.004,0.17,0.004c0,0,0.004,0,0.005,0  c0,0,0,0,0.001,0c0.001,0,0.005,0,0.005,0c4.178,0,8.226-0.846,11.956-2.447c3.499-1.501,6.719-3.666,9.496-6.439  c5.728-5.731,8.883-13.351,8.883-21.457c0-0.491-0.013-0.98-0.036-1.468c-0.008-0.163-0.023-0.324-0.034-0.486  c-0.021-0.324-0.041-0.649-0.071-0.971c-0.019-0.192-0.044-0.382-0.066-0.573c-0.033-0.29-0.065-0.58-0.106-0.868  c-0.029-0.205-0.065-0.407-0.099-0.61c-0.044-0.272-0.089-0.544-0.141-0.814c-0.04-0.209-0.086-0.417-0.131-0.625  c-0.056-0.262-0.113-0.523-0.175-0.783c-0.051-0.209-0.106-0.417-0.162-0.625c-0.068-0.255-0.137-0.51-0.211-0.764  c-0.061-0.208-0.126-0.416-0.192-0.623c-0.079-0.249-0.16-0.496-0.245-0.742c-0.072-0.207-0.146-0.413-0.222-0.618  c-0.09-0.244-0.184-0.486-0.28-0.727c-0.081-0.203-0.164-0.404-0.25-0.605c-0.102-0.24-0.208-0.478-0.317-0.715  c-0.09-0.198-0.182-0.396-0.277-0.592c-0.114-0.235-0.232-0.468-0.353-0.701c-0.1-0.192-0.199-0.385-0.302-0.575  c-0.127-0.233-0.259-0.463-0.393-0.693c-0.107-0.185-0.213-0.37-0.324-0.553c-0.141-0.232-0.289-0.46-0.437-0.689  c-0.113-0.174-0.223-0.351-0.34-0.523c-0.159-0.235-0.325-0.466-0.491-0.697c-0.115-0.161-0.227-0.323-0.345-0.481  c-0.187-0.25-0.383-0.495-0.578-0.741c-0.106-0.133-0.208-0.27-0.317-0.401c-0.272-0.331-0.555-0.656-0.843-0.977  c-0.038-0.042-0.073-0.086-0.11-0.128c-0.001-0.001-0.003-0.003-0.004-0.005l3.444-3.446c5.993,6.512,9.275,14.912,9.275,23.817  c0,0.588-0.014,1.174-0.043,1.757c-0.427,8.747-4.036,16.908-10.271,23.14c-0.639,0.639-1.306,1.245-1.989,1.83  c-0.094,0.081-0.187,0.163-0.281,0.243c-0.698,0.586-1.416,1.146-2.156,1.676c-0.031,0.022-0.063,0.044-0.094,0.066  c-1.572,1.115-3.234,2.104-4.98,2.953c-0.026,0.013-0.045,0.034-0.071,0.048c-4.719,2.285-9.929,3.497-15.327,3.498  C20.053,84.58,11.655,81.298,5.143,75.306z"/><path d="M71.422,37.376l-2.947,2.947c-0.586,0.586-0.586,1.536,0,2.122c0.292,0.293,0.677,0.439,1.061,0.439  s0.768-0.146,1.061-0.439l2.948-2.947l2.949,2.948c0.293,0.292,0.677,0.439,1.061,0.439s0.768-0.146,1.061-0.439  c0.585-0.586,0.585-1.536,0-2.122l-2.948-2.947l2.948-2.947c0.586-0.585,0.586-1.535,0-2.121c-0.586-0.586-1.536-0.586-2.122,0  l-2.949,2.948l-2.949-2.948c-0.586-0.585-1.536-0.585-2.122,0c-0.585,0.586-0.585,1.536,0,2.122L71.422,37.376z"/><text x="0" y="115" fill="#000000" font-size="5px" font-weight="bold" font-family="'Helvetica Neue', Helvetica, Arial-Unicode, Arial, Sans-serif">Created by Ema Dimitrova</text><text x="0" y="120" fill="#000000" font-size="5px" font-weight="bold" font-family="'Helvetica Neue', Helvetica, Arial-Unicode, Arial, Sans-serif">from the Noun Project</text></svg>