<svg xmlns="http://www.w3.org/2000/svg" xmlns:xlink="http://www.w3.org/1999/xlink" version="1.1" x="0px" y="0px" viewBox="0 0 100 125" enable-background="new 0 0 100 100" xml:space="preserve"><path d="M98.778,48.833c-0.359-3.583-6.682-3.583-6.682-3.583s-27.906,0-46.961,0s-22.667,2.417-22.667,2.417  s-1.219,1.125,8.873,1.167H98.778z"/><path d="M42.856,44.646v-4.321c0-0.847,0.884-1.533,1.975-1.533l12.07-1.021c1.092,0,1.976,0.686,1.976,1.533v5.342"/><path d="M44.705,44.583"/><path d="M56.518,44.583"/><path d="M48.225,38.271c-0.283,0-0.511-0.224-0.511-0.5V31.75c0-0.276,0.229-0.5,0.511-0.5s0.511,0.224,0.511,0.5v6.021  C48.736,38.047,48.507,38.271,48.225,38.271z"/><path d="M51.378,38.021c-0.141,0-0.256-0.112-0.256-0.25v-7.688c0-0.138,0.115-0.25,0.256-0.25s0.256,0.112,0.256,0.25v7.688  C51.634,37.909,51.519,38.021,51.378,38.021z"/><path d="M54.361,37.688c-0.142,0-0.256-0.112-0.256-0.25V28.5c0-0.138,0.114-0.25,0.256-0.25c0.141,0,0.255,0.112,0.255,0.25v8.937  C54.616,37.576,54.502,37.688,54.361,37.688z"/><path d="M98.778,49.5c0,0-0.044,1.75,0,4.5c0.045,2.75-3.228,3.438-3.228,3.438s-62.177,0.25-68.612,0.25S3.775,54,3.775,54  s-1.626-0.938,0.474-1.75s11.312-3.813,13.546-4s3.89,0,3.89,0s-1.219,1.125,8.874,1.167"/><polygon points="8.428,50 4.422,51.5 4.422,47.042 7.448,47.042 "/><polygon points="9.664,55.916 4.635,54.625 4.635,57.875 8.683,57.875 "/><path d="M1.951,56.008c-0.07,0-0.142-0.015-0.21-0.045c-0.257-0.113-0.371-0.41-0.255-0.661c1.082-2.335,0.099-3.688,0.057-3.744  c-0.166-0.222-0.12-0.534,0.104-0.698c0.226-0.164,0.542-0.123,0.712,0.095c0.058,0.074,1.405,1.854,0.059,4.759  C2.331,55.898,2.146,56.008,1.951,56.008z"/><path d="M1.399,53.77c-0.133,0-0.266-0.05-0.358-0.14c-0.103-0.11-0.153-0.23-0.153-0.36s0.051-0.26,0.143-0.35  c0.205-0.19,0.542-0.19,0.727,0c0.092,0.09,0.153,0.22,0.153,0.35S1.859,53.53,1.757,53.62C1.665,53.72,1.532,53.77,1.399,53.77z"/></svg>