<svg xmlns="http://www.w3.org/2000/svg" xmlns:xlink="http://www.w3.org/1999/xlink" version="1.1" x="0px" y="0px" viewBox="0 0 100 125" enable-background="new 0 0 100 100" xml:space="preserve"><path d="M89.4,39.5v-1.2l-16.1-8.9c-7.4-4.2-17.2-4.1-17.3-4.1H21.4c-7.8,0-14.1,6.3-14.1,14.1c0,2,0.4,4.1,1.2,5.9l3.2,8.9  l-6.6,8.9l7.2,10.8l1.5-1L13,68.3l3.3-1.2l2.8,7.6H32V73L27.8,71l3.2-9.6v1.8l2-2.2v2.2l2-2.2v2.2l2-2.2v2.2l2-2.2v2.2l2-2.2v2.2  l2-2.2v2.2l0.7-0.7v2.2h-3.5v1.8l8.7,3.9l0,0h0c2.6,0,4.8-2.1,4.8-4.8v-3.5l1-1.1l10.7,13.7h12.8V73l-5-2.5L66.6,52l2.5-2.9v2.2  l2-2.2v2.2l2-2.2v2.2l2.9-3v2l2-2.2v2.2l2-2.2v2.2l2-2.2v2.2l2-2.2l5.5,0l1-1.3h1.2l2.9-1.6v0v-0.9v-0.6L89.4,39.5z"/><text x="0" y="115" fill="#000000" font-size="5px" font-weight="bold" font-family="'Helvetica Neue', Helvetica, Arial-Unicode, Arial, Sans-serif">Created by Ed Harrison</text><text x="0" y="120" fill="#000000" font-size="5px" font-weight="bold" font-family="'Helvetica Neue', Helvetica, Arial-Unicode, Arial, Sans-serif">from the Noun Project</text></svg>