<svg xmlns="http://www.w3.org/2000/svg" xmlns:xlink="http://www.w3.org/1999/xlink" version="1.1" x="0px" y="0px" viewBox="0 0 100 125" enable-background="new 0 0 100 100" xml:space="preserve"><g><path d="M88.6,52.4c0-2.6-2.1-4.7-4.7-4.7l-48.4,0l-4.1-14.4h50.4v13h2.8v-13h2.6c0.8,0,1.4-0.6,1.4-1.4v-0.2   c0-0.8-0.6-1.4-1.4-1.4H30.5L24.1,7.7c-0.7-2.5-3.3-4-5.8-3.2l-2.6,0.7c-2.5,0.7-4,3.3-3.2,5.8l5.4,19.2h-1c-0.8,0-1.4,0.6-1.4,1.4   v0.2c0,0.8,0.6,1.4,1.4,1.4h1.8l6.4,22.9c0,0.1,0,0.1,0.1,0.2c0.5,2,2.4,3.5,4.5,3.5l54.2,0c2.6,0,4.7-2.1,4.7-4.7L88.6,52.4z"/><polygon points="80.3,61.7 31.4,61.7 26.2,61.7 24.8,96.3 26.9,96.3 30.5,68.4 80.6,68.4 80.6,68.4 81.9,96.3 83.9,96.3 85.4,61.7    81.4,61.7  "/></g><text x="0" y="115" fill="#000000" font-size="5px" font-weight="bold" font-family="'Helvetica Neue', Helvetica, Arial-Unicode, Arial, Sans-serif">Created by Alex Vaughn</text><text x="0" y="120" fill="#000000" font-size="5px" font-weight="bold" font-family="'Helvetica Neue', Helvetica, Arial-Unicode, Arial, Sans-serif">from the Noun Project</text></svg>