<svg xmlns="http://www.w3.org/2000/svg" xmlns:xlink="http://www.w3.org/1999/xlink" version="1.1" x="0px" y="0px" viewBox="0 0 100 125" enable-background="new 0 0 100 100" xml:space="preserve"><g><path d="M79.729,5.183H20.271c-0.775,0-1.404,0.629-1.404,1.404v86.825c0,0.775,0.629,1.404,1.404,1.404h59.458   c0.776,0,1.405-0.629,1.405-1.404V6.587C81.134,5.812,80.505,5.183,79.729,5.183z M79.378,93.061H20.622V6.939h58.756V93.061z"/><path d="M30.654,26.727l10.601,9.867l10.606-9.872c1.37-1.299,2.125-3.053,2.125-4.939c0-3.752-3.053-6.805-6.805-6.805   c-2.539,0-4.757,1.397-5.927,3.464c-1.169-2.066-3.388-3.464-5.926-3.464c-3.753,0-6.805,3.053-6.805,6.805   C28.524,23.669,29.278,25.423,30.654,26.727z M35.329,16.734c2.783,0,5.048,2.265,5.048,5.049h1.756   c0-2.784,2.265-5.049,5.049-5.049s5.049,2.265,5.049,5.049c0,1.399-0.561,2.701-1.571,3.659l-9.404,8.754l-9.398-8.748   c-1.017-0.964-1.576-2.266-1.576-3.665C30.28,18.999,32.545,16.734,35.329,16.734z"/><path d="M46.014,78.217c0,3.752,3.053,6.805,6.805,6.805c2.538,0,4.757-1.396,5.926-3.463c1.17,2.066,3.388,3.463,5.927,3.463   c3.752,0,6.805-3.053,6.805-6.805c0-1.887-0.755-3.641-2.131-4.945l-10.601-9.865l-10.606,9.871   C46.768,74.576,46.014,76.33,46.014,78.217z M49.34,74.557l9.404-8.752l9.398,8.748c1.017,0.963,1.577,2.266,1.577,3.664   c0,2.785-2.265,5.049-5.049,5.049c-2.783,0-5.049-2.264-5.049-5.049h-1.756c0,2.785-2.265,5.049-5.048,5.049   c-2.784,0-5.049-2.264-5.049-5.049C47.77,76.818,48.329,75.516,49.34,74.557z"/></g><text x="0" y="115" fill="#000000" font-size="5px" font-weight="bold" font-family="'Helvetica Neue', Helvetica, Arial-Unicode, Arial, Sans-serif">Created by Anton Gajdosik</text><text x="0" y="120" fill="#000000" font-size="5px" font-weight="bold" font-family="'Helvetica Neue', Helvetica, Arial-Unicode, Arial, Sans-serif">from the Noun Project</text></svg>