<svg xmlns="http://www.w3.org/2000/svg" xmlns:xlink="http://www.w3.org/1999/xlink" version="1.1" x="0px" y="0px" viewBox="0 0 100 125" enable-background="new 0 0 100 100" xml:space="preserve"><path fill-rule="evenodd" clip-rule="evenodd" d="M78.347,38.661c-2.245,0-4.046-0.444-5.754-0.981  c0.056,0.318,0.085,0.646,0.085,0.981c0,3.132-2.539,5.67-5.67,5.67c-1.565,0-2.834,1.269-2.834,2.834S65.442,50,67.008,50  c3.131,0,5.67,2.538,5.67,5.669c0,3.132-2.539,5.67-5.67,5.67c-1.565,0-2.834,1.269-2.834,2.834c0,1.566,1.269,2.835,2.834,2.835  c3.131,0,5.67,2.539,5.67,5.67s-2.539,5.669-5.67,5.669c-1.565,0-2.834,1.269-2.834,2.835c0,1.565,1.269,2.834,2.834,2.834  c3.131,0,5.67,2.539,5.67,5.67s-2.539,5.669-5.67,5.669V92.52c1.565,0,2.835-1.269,2.835-2.834c0-1.566-1.27-2.835-2.835-2.835  c-3.131,0-5.669-2.538-5.669-5.669s2.538-5.67,5.669-5.67c1.565,0,2.835-1.269,2.835-2.834c0-1.566-1.27-2.835-2.835-2.835  c-3.131,0-5.669-2.538-5.669-5.67c0-3.131,2.538-5.669,5.669-5.669c1.565,0,2.835-1.27,2.835-2.835s-1.27-2.834-2.835-2.834  c-3.131,0-5.669-2.538-5.669-5.67c0-3.131,2.538-5.669,5.669-5.669c1.565,0,2.835-1.269,2.835-2.835c0-0.877-0.398-1.66-1.023-2.18  c-1.388-0.379-2.879-0.654-4.646-0.654c-3.495,0-5.912,1.076-8.581,1.902c0.051,0.304,0.076,0.615,0.076,0.932  c0,3.132-2.538,5.67-5.669,5.67c-1.565,0-2.835,1.269-2.835,2.834S48.435,50,50,50c3.131,0,5.669,2.538,5.669,5.669  c0,3.132-2.538,5.67-5.669,5.67c-1.565,0-2.835,1.269-2.835,2.834c0,1.566,1.27,2.835,2.835,2.835c3.131,0,5.669,2.539,5.669,5.67  S53.131,78.347,50,78.347c-1.565,0-2.835,1.269-2.835,2.835c0,1.565,1.27,2.834,2.835,2.834c3.131,0,5.669,2.539,5.669,5.67  S53.131,95.354,50,95.354V92.52c1.565,0,2.835-1.269,2.835-2.834c0-1.566-1.27-2.835-2.835-2.835c-3.131,0-5.669-2.538-5.669-5.669  s2.538-5.67,5.669-5.67c1.565,0,2.835-1.269,2.835-2.834c0-1.566-1.27-2.835-2.835-2.835c-3.131,0-5.669-2.538-5.669-5.67  c0-3.131,2.538-5.669,5.669-5.669c1.565,0,2.835-1.27,2.835-2.835s-1.27-2.834-2.835-2.834c-3.131,0-5.669-2.538-5.669-5.67  c0-3.131,2.538-5.669,5.669-5.669c1.565,0,2.835-1.269,2.835-2.835c0-0.082-0.004-0.163-0.011-0.243  c-0.872,0.151-1.802,0.243-2.824,0.243c-4.903,0-7.687-2.12-12.018-2.693c0.433,0.802,0.679,1.719,0.679,2.693  c0,3.132-2.538,5.67-5.669,5.67c-1.565,0-2.835,1.269-2.835,2.834S31.427,50,32.992,50c3.131,0,5.669,2.538,5.669,5.669  c0,3.132-2.538,5.67-5.669,5.67c-1.565,0-2.835,1.269-2.835,2.834c0,1.566,1.27,2.835,2.835,2.835c3.131,0,5.669,2.539,5.669,5.67  s-2.538,5.669-5.669,5.669c-1.565,0-2.835,1.269-2.835,2.835c0,1.565,1.27,2.834,2.835,2.834c3.131,0,5.669,2.539,5.669,5.67  s-2.538,5.669-5.669,5.669V92.52c1.565,0,2.835-1.269,2.835-2.834c0-1.566-1.27-2.835-2.835-2.835c-3.131,0-5.669-2.538-5.669-5.669  s2.538-5.67,5.669-5.67c1.565,0,2.835-1.269,2.835-2.834c0-1.566-1.27-2.835-2.835-2.835c-3.131,0-5.669-2.538-5.669-5.67  c0-3.131,2.538-5.669,5.669-5.669c1.565,0,2.835-1.27,2.835-2.835s-1.27-2.834-2.835-2.834c-3.131,0-5.669-2.538-5.669-5.67  c0-3.131,2.538-5.669,5.669-5.669c1.565,0,2.835-1.269,2.835-2.835c0-1.278-0.847-2.358-2.009-2.712  c-4.416,0.543-7.206,2.712-12.165,2.712h-1.417c0,0-1.417,0-1.417-1.417s0-1.417,0-1.417c0-17.221,13.96-31.182,31.181-31.182  s31.181,13.961,31.181,31.182c0,0,0,0,0,1.417s-1.417,1.417-1.417,1.417H78.347L78.347,38.661z M67.9,27.323  c-0.783,0-1.418,0.635-1.418,1.417s0.635,1.417,1.418,1.417c0.782,0,1.417-0.635,1.417-1.417S68.683,27.323,67.9,27.323L67.9,27.323  z M66.652,21.653c-0.783,0-1.418,0.635-1.418,1.418c0,0.782,0.635,1.417,1.418,1.417c0.782,0,1.417-0.635,1.417-1.417  C68.069,22.288,67.435,21.653,66.652,21.653L66.652,21.653z M64.472,15.984c-0.783,0-1.418,0.635-1.418,1.417  c0,0.783,0.635,1.418,1.418,1.418c0.782,0,1.417-0.635,1.417-1.418C65.889,16.619,65.254,15.984,64.472,15.984L64.472,15.984z   M60.819,10.315c-0.782,0-1.417,0.634-1.417,1.417c0,0.782,0.635,1.417,1.417,1.417c0.783,0,1.418-0.635,1.418-1.417  C62.237,10.949,61.603,10.315,60.819,10.315L60.819,10.315z M32.101,27.323c-0.783,0-1.417,0.635-1.417,1.417  s0.634,1.417,1.417,1.417c0.782,0,1.417-0.635,1.417-1.417S32.883,27.323,32.101,27.323L32.101,27.323z M33.349,21.653  c-0.783,0-1.418,0.635-1.418,1.418c0,0.782,0.635,1.417,1.418,1.417c0.782,0,1.417-0.635,1.417-1.417  C34.766,22.288,34.131,21.653,33.349,21.653L33.349,21.653z M35.529,15.984c-0.783,0-1.418,0.635-1.418,1.417  c0,0.783,0.635,1.418,1.418,1.418c0.782,0,1.417-0.635,1.417-1.418C36.946,16.619,36.312,15.984,35.529,15.984L35.529,15.984z   M39.181,10.315c-0.782,0-1.417,0.634-1.417,1.417c0,0.782,0.635,1.417,1.417,1.417c0.783,0,1.418-0.635,1.418-1.417  C40.599,10.949,39.964,10.315,39.181,10.315L39.181,10.315z M50,21.653c-0.782,0-1.417,0.635-1.417,1.418  c0,0.782,0.635,1.417,1.417,1.417c0.783,0,1.417-0.635,1.417-1.417C51.417,22.288,50.783,21.653,50,21.653L50,21.653z M50,27.323  c-0.782,0-1.417,0.635-1.417,1.417s0.635,1.417,1.417,1.417c0.783,0,1.417-0.635,1.417-1.417S50.783,27.323,50,27.323L50,27.323z   M50,10.315c-0.782,0-1.417,0.634-1.417,1.417c0,0.782,0.635,1.417,1.417,1.417c0.783,0,1.417-0.635,1.417-1.417  C51.417,10.949,50.783,10.315,50,10.315L50,10.315z M50,15.984c-0.782,0-1.417,0.635-1.417,1.417c0,0.783,0.635,1.418,1.417,1.418  c0.783,0,1.417-0.635,1.417-1.418C51.417,16.619,50.783,15.984,50,15.984L50,15.984z M21.653,35.827c2.265,0,4.075-0.567,6.19-1.272  c2.734-0.911,5.054-1.563,7.983-1.563c2.929,0,5.248,0.651,7.982,1.563c2.115,0.705,3.927,1.272,6.19,1.272s4.075-0.567,6.19-1.272  c2.734-0.911,5.054-1.563,7.983-1.563c2.929,0,5.248,0.651,7.982,1.563c2.115,0.705,3.927,1.272,6.19,1.272  C78.347,20.172,65.655,7.48,50,7.48S21.653,20.172,21.653,35.827z"/><text x="0" y="115" fill="#000000" font-size="5px" font-weight="bold" font-family="'Helvetica Neue', Helvetica, Arial-Unicode, Arial, Sans-serif">Created by Stanislav Levin</text><text x="0" y="120" fill="#000000" font-size="5px" font-weight="bold" font-family="'Helvetica Neue', Helvetica, Arial-Unicode, Arial, Sans-serif">from the Noun Project</text></svg>