<svg xmlns="http://www.w3.org/2000/svg" xmlns:xlink="http://www.w3.org/1999/xlink" version="1.1" x="0px" y="0px" viewBox="0 0 100 125" enable-background="new 0 0 100 100" xml:space="preserve"><path fill="#000000" d="M61.981,23.619c0.264,0.166,0.541,0.314,0.828,0.445c0.855,0.388,1.768,0.603,2.691,0.627  c0.943,0.27,1.672,1.281,2.261,2.1c0.561,0.778,1.045,1.45,1.829,1.621c0.599,0.131,1.178-0.05,1.564-0.476  c0.663-0.731,0.558-1.816,0.383-3.615l-0.083-0.886c-0.147-1.705-1.264-2.916-2.16-3.625c-0.294-1.581-1.57-3.062-3.413-3.9  c-0.908-0.412-1.884-0.63-2.822-0.63c-1.664,0-3.042,0.669-3.77,1.809c-1.348,0.901-6.815,4.946-5.44,10.42  c0.691,2.75,2.777,5.956,4.748,8.77c-1.842-0.715-4.327-1.221-7.701-1.221c-9.312,0-18.442,6.319-21.453,10.881  c-1.066,1.615-1.37,2.986-0.903,4.077c0.567,1.325,1.519,1.97,2.912,1.97c0.389,0,0.786-0.045,1.207-0.092  c0.481-0.054,0.979-0.109,1.534-0.109c1.087,0,2.809,0.193,5.193,1.862c3.404,2.385,7.213,2.886,9.81,2.886  c0.502,0,0.996-0.023,1.481-0.058l-3.305,26.842c-0.084,0.685,0.403,1.309,1.088,1.393c0.052,0.007,0.104,0.01,0.154,0.01  c0.622,0,1.161-0.464,1.239-1.098l3.384-27.487c0.868-0.17,1.648-0.381,2.305-0.613l7.195,28.257  c0.144,0.565,0.652,0.941,1.21,0.941c0.102,0,0.206-0.013,0.31-0.039c0.669-0.17,1.073-0.851,0.903-1.52l-7.209-28.312  c0.553,0.051,1.099,0.086,1.628,0.086c5.243,0,8.93-2.443,10.664-7.066c1.974-5.263-1.778-10.136-5.088-14.436  c-1.353-1.758-2.631-3.418-3.476-5.006c-0.839-1.578-1.082-2.878-0.703-3.76C61.206,24.135,61.643,23.806,61.981,23.619z   M59.473,29.601c0.943,1.773,2.283,3.514,3.702,5.357c3.055,3.968,6.214,8.07,4.728,12.033c-1.354,3.611-4.155,5.443-8.323,5.443  c-1.927,0-4.077-0.396-6.39-1.178c-0.646-0.218-1.351,0.124-1.579,0.769c-0.228,0.644,0.104,1.352,0.746,1.589l0.272,0.101  c-0.995,0.187-2.166,0.317-3.434,0.317c-2.236,0-5.505-0.422-8.375-2.434c-2.255-1.579-4.361-2.314-6.627-2.314  c-0.694,0-1.288,0.066-1.811,0.125c-0.343,0.038-0.652,0.076-0.93,0.076c-0.348,0-0.42,0-0.613-0.451  c-0.038-0.103-0.006-0.73,0.832-1.927c2.804-4.004,11.045-9.55,19.225-9.55c7.987,0,9.974,3.053,10.722,4.201  c0.299,0.46,0.671,1.033,1.448,1.033c0,0,0,0,0.001,0c0.249-0.001,0.869-0.079,1.246-0.804c0.595-1.145-0.281-2.376-2.621-5.666  c-1.99-2.797-4.715-6.628-5.417-9.423c-1.083-4.31,4.546-7.825,4.602-7.859c0.203-0.124,0.367-0.304,0.472-0.518  c0.381-0.777,2.083-0.979,3.501-0.336c1.315,0.598,2.007,1.616,2.011,2.312c0.002,0.414,0.209,0.801,0.554,1.031  c0.542,0.363,1.464,1.122,1.551,2.121l0.062,0.671c-0.731-0.885-1.717-1.795-3.094-2.1c-0.088-0.02-0.217-0.029-0.308-0.029  c-0.581,0-1.198-0.141-1.783-0.405c-0.335-0.152-0.647-0.343-0.929-0.565c-0.333-0.263-0.77-0.335-1.162-0.208  c-0.442,0.128-2.223,0.748-3.052,2.619C57.976,25.268,58.236,27.275,59.473,29.601z"/><text x="0" y="115" fill="#000000" font-size="5px" font-weight="bold" font-family="'Helvetica Neue', Helvetica, Arial-Unicode, Arial, Sans-serif">Created by Becca O'Shea</text><text x="0" y="120" fill="#000000" font-size="5px" font-weight="bold" font-family="'Helvetica Neue', Helvetica, Arial-Unicode, Arial, Sans-serif">from the Noun Project</text></svg>