<svg xmlns="http://www.w3.org/2000/svg" xmlns:xlink="http://www.w3.org/1999/xlink" version="1.1" x="0px" y="0px" viewBox="0 0 100 125" enable-background="new 0 0 100 100" xml:space="preserve"><path fill="#000000" d="M38.266,62.146C26.603,62.922,21.643,84.844,9.053,92.51c-0.497-1.805-2.98-1.251-4.137-2.296  c1.885-12.187,13.511-22.644,14.411-31.58c-1.736,0.56-2.344,2.06-5.13,1.737l0.45-2.45l-2.092-1.375  C29.523,38.024,55.503-1.253,86.57,11.858l8.162,0.336l-8.244,4.084c-13.49,15.8-19.193,39.645-34.227,44.311  C42.932,62.404,40.195,62.016,38.266,62.146z M78.872,13.33c-1.218,0-2.196,0.988-2.196,2.212c0,1.222,0.979,2.196,2.196,2.196  c1.239,0,2.217-0.974,2.217-2.196C81.089,14.318,80.111,13.33,78.872,13.33z M52.1,50.874c15.438-2.91,14.687-20.639,5.826-23.682  c-8.871-3.042-25.973,23.682-25.973,23.682S36.658,53.784,52.1,50.874z"/><g><path d="M52.985,71.188c-0.157-0.445,0.023-0.926,0.462-1.111c1.273-0.496,2.143-1.658,3.056-2.835   c1.003-1.292,2.029-2.638,3.663-3.393c0.43-0.221,0.925,0,1.128,0.411c0.192,0.422,0,0.931-0.417,1.132   c-1.241,0.587-2.107,1.692-3.021,2.869c-1.003,1.371-2.052,2.739-3.766,3.428c-0.078,0-0.157,0.017-0.237,0.045   C53.516,71.756,53.122,71.531,52.985,71.188z"/></g><g><path d="M63.244,67.975c0.192-0.028,0.338-0.079,0.496-0.187c0.53-0.344,0.722-1.047,0.371-1.577   c-0.867-1.398-1.948-2.271-3.258-2.683c-0.585-0.188-1.218,0.15-1.431,0.755c-0.18,0.586,0.169,1.223,0.777,1.426   c0.756,0.241,1.387,0.79,1.963,1.713C62.398,67.822,62.828,67.998,63.244,67.975z"/></g><g><path d="M60.606,65.636c0.136-0.027,0.271-0.052,0.406-0.13c0.474-0.293,0.652-0.873,0.382-1.374   c-0.756-1.365-1.859-2.341-2.907-3.293c-0.981-0.841-1.872-1.651-2.48-2.704c-0.26-0.502-0.868-0.684-1.341-0.396   c-0.476,0.259-0.654,0.869-0.418,1.364c0.768,1.365,1.837,2.322,2.886,3.269c1.003,0.847,1.894,1.653,2.536,2.757   C59.851,65.473,60.223,65.658,60.606,65.636z"/></g><g><path d="M47.534,72.797c0.079,0,0.157-0.024,0.237-0.053c1.713-0.652,2.76-2.051,3.764-3.397c0.925-1.179,1.792-2.312,3.033-2.892   c0.418-0.181,0.597-0.684,0.418-1.132c-0.215-0.414-0.711-0.605-1.14-0.414c-1.635,0.761-2.649,2.098-3.653,3.417   c-0.923,1.189-1.792,2.316-3.055,2.818c-0.451,0.176-0.631,0.652-0.474,1.132C46.8,72.615,47.195,72.83,47.534,72.797z"/></g><g><path d="M56.936,69.036c0.18,0,0.337-0.085,0.496-0.186c0.519-0.338,0.71-1.025,0.371-1.551c-0.867-1.396-1.949-2.288-3.269-2.711   c-0.574-0.181-1.207,0.151-1.409,0.766c-0.19,0.576,0.146,1.235,0.756,1.449c0.754,0.203,1.419,0.757,1.973,1.709   C56.09,68.884,56.507,69.064,56.936,69.036z"/></g><g><path d="M54.31,66.691c0.123-0.023,0.259-0.045,0.382-0.129c0.474-0.288,0.655-0.864,0.396-1.343   c-0.756-1.375-1.86-2.367-2.898-3.285c-0.991-0.841-1.894-1.664-2.502-2.713c-0.258-0.501-0.857-0.687-1.33-0.427   c-0.474,0.276-0.666,0.874-0.428,1.375c0.766,1.37,1.871,2.317,2.898,3.264c1.002,0.846,1.893,1.663,2.525,2.762   C53.53,66.539,53.903,66.715,54.31,66.691z"/></g></svg>