<svg xmlns="http://www.w3.org/2000/svg" xmlns:xlink="http://www.w3.org/1999/xlink" version="1.1" x="0px" y="0px" viewBox="0 0 100 125" enable-background="new 0 0 100 100" xml:space="preserve"><path d="M34.93,45.848c0.422,2.31,0.825,2.251-1.907,2.999c-4.433,1.212-8.853,2.475-13.277,3.711  c-1.335,0.374-1.687,0.213-1.987-1.146c-0.394-1.784-0.812-3.577-1.027-5.386c0.251,0.152,0.526,0.301,0.832,0.42  c0.645,0.253,1.349,0.387,2.031,0.387c1.289,0,2.438-0.469,3.236-1.318c1.148-1.219,1.494-2.873,1.696-4.481  c0.029-0.229,0.062-0.922,0.117-2.037c0.048-1.012,0.119-2.519,0.167-2.849l0.506-0.849l-0.169,0.042  c0.356-0.167,0.691-0.356,1.012-0.565c0.526-0.348,1.003-0.748,1.434-1.206c0.361-0.136,0.724-0.266,1.087-0.396  c0.37-0.132,0.741-0.26,1.111-0.385c0.07,0.09,0.143,0.176,0.216,0.26l0.013,0.015c1.454,1.637,3.375,2.499,5.559,2.499  c0.176,0,0.354-0.007,0.532-0.018c0.9-0.059,1.5-0.438,1.914-0.851c-0.002,0.007-0.007,0.011-0.009,0.018  c-0.317,0.656-0.075,1.707,0.352,2.207c0.4,0.466,0.823,0.895,1.263,1.291c-1.509,0.273-3.007,0.609-4.492,1.016  c-0.251,0.068-0.592-0.079-0.854-0.207c-0.669-0.319-1.316-0.684-2.026-0.955C34.34,40.278,34.435,43.142,34.93,45.848z"/><path d="M82.065,52.026c-0.229,0.823-0.906,0.805-1.584,0.616c-2.226-0.625-4.451-1.258-6.677-1.883  c-2.594-0.726-5.19-1.443-7.781-2.171c-1.225-0.343-1.349-0.537-1.14-1.806c0.183-1.098,0.348-2.2,0.572-3.291  c0.02-0.095,0.04-0.191,0.059-0.288c1.892-0.086,4.028-0.185,6.098-0.414c0.158-0.013,0.304-0.092,0.407-0.218l0.007-0.009  l0.009-0.011c0.002-0.004,0.004-0.007,0.007-0.011c0.11,0.112,0.264,0.183,0.431,0.183h0.046l0.026-0.002  c0.205-0.026,0.416-0.053,0.623-0.081c2.31-0.317,4.314-0.788,6.131-1.445c0.931-0.334,1.885-0.741,2.847-1.212  c0.796,1.357,1.153,2.955,1.217,4.726C83.451,47.256,82.729,49.632,82.065,52.026z"/><path d="M51.634,21.939c0,1.709-0.317,3.287-0.854,4.567c-0.002-0.004-0.007-0.009-0.009-0.015  c-0.209,0.414-0.414,0.816-0.616,1.214c-0.315,0.616-0.62,1.221-0.922,1.817c-0.024,0.046-0.046,0.092-0.07,0.139  c-0.565,1.118-1.118,2.207-1.674,3.302c-0.033-0.084-0.07-0.163-0.11-0.242c-0.035-0.079-0.075-0.156-0.119-0.231  c-0.084-0.154-0.174-0.301-0.268-0.44c-0.022-0.033-0.044-0.066-0.068-0.097c-0.033-0.048-0.068-0.095-0.106-0.141  c-0.013-0.018-0.026-0.035-0.042-0.053c-0.04-0.051-0.081-0.099-0.125-0.147c-0.031-0.04-0.066-0.077-0.103-0.114  c-0.053-0.057-0.108-0.11-0.163-0.163c-0.059-0.055-0.119-0.108-0.18-0.158c-0.051-0.042-0.101-0.081-0.152-0.119  c-0.079-0.057-0.161-0.11-0.242-0.161c-0.044-0.026-0.088-0.053-0.134-0.077c-0.062-0.033-0.125-0.064-0.189-0.092  c-0.002-0.002-0.007-0.004-0.009-0.004c-0.057-0.024-0.112-0.048-0.169-0.068c-0.009-0.004-0.02-0.007-0.029-0.011  c-0.048-0.018-0.097-0.033-0.147-0.046c-0.077-0.022-0.158-0.042-0.238-0.057c-0.158-0.031-0.323-0.046-0.486-0.046  c-0.018,0-0.035,0-0.053,0.002c-0.132-0.235-0.266-0.473-0.403-0.711c-0.458-0.814-0.937-1.659-1.483-2.627  c-0.055-0.095,0.165-0.662,0.319-1.063c0.062-0.165,0.114-0.304,0.13-0.365c0.068-0.284,0.123-0.57,0.167-0.858  c0.042-0.255,0.077-0.513,0.101-0.772c0.117-1.188-0.04-2.31-0.084-3.494c0.114-0.02,0.229-0.033,0.345-0.042  c0.213-0.009,0.425-0.007,0.631-0.02c2.277-0.132,4.552-0.24,6.822-0.297c0.209-0.007,0.416-0.013,0.623-0.015  C51.597,20.781,51.634,21.353,51.634,21.939z"/><path d="M42.636,22.764c0,0.752-0.062,1.474-0.178,2.145c-0.101,0.616-0.249,1.188-0.433,1.705  c-0.224,0.427-0.451,0.854-0.675,1.278c-0.079,0.158-0.161,0.312-0.242,0.466c-0.152,0.288-0.304,0.579-0.453,0.865  c-0.09,0.169-0.176,0.339-0.266,0.506c-0.095,0.178-0.187,0.356-0.284,0.535c-0.323,0.616-0.653,1.23-0.99,1.839  c-0.315,0.563-0.579,1.155-0.913,1.661c-0.024,0.04-0.048,0.079-0.077,0.119c-0.462,0.667-1.049,1.159-2.042,1.223  c-0.169,0.011-0.337,0.018-0.504,0.018c-2.039,0-3.865-0.816-5.225-2.345c-0.037-0.044-0.077-0.09-0.114-0.136  c-0.055-0.064-0.11-0.13-0.163-0.196c-0.255-0.323-0.473-0.678-0.763-1.135c0.893-1.837,1.423-4.138,1.423-6.631  c0-1.597-0.22-3.117-0.609-4.488c0.713-0.033,1.426-0.051,2.143-0.051c0.867,0,1.736,0.024,2.609,0.07  c0.31,0.015,0.618,0.033,0.931,0.053c0.101,0.009,0.202,0.015,0.308,0.02c0.103,0.007,0.209,0.013,0.312,0.02  c1.905,0.114,3.881,0.088,5.775,0.293c0.004,0,0.004,0,0.007,0c0.077,0.007,0.152,0.011,0.224,0.022  C42.643,21.283,42.636,22.077,42.636,22.764z"/><path d="M30.12,24.68c0,2.253-0.44,4.336-1.19,6.03c-0.002,0-0.002-0.002-0.002-0.002c-0.642,1.452-1.476,2.515-2.451,3.289  c-0.183,0.147-0.37,0.284-0.561,0.409c-0.816,0.537-1.714,0.904-2.671,1.153c-0.095,0.024-0.191,0.048-0.288,0.068  c-1.111,0.262-2.297,0.372-3.516,0.409c-0.075,0.002-0.15,0.002-0.222,0.002c-0.075,0-0.15,0-0.222-0.002  c-0.647-0.024-1.265-0.139-1.857-0.326c-0.262-0.081-0.515-0.18-0.763-0.29c-0.315-0.139-0.623-0.299-0.917-0.48  c-0.713-0.429-1.364-0.966-1.96-1.569c-0.066-0.07-0.134-0.141-0.202-0.213c-0.229-0.242-0.464-0.497-0.695-0.766  c-0.213-0.251-0.422-0.508-0.614-0.777c-0.154-0.213-0.295-0.431-0.416-0.656c-0.123-0.222-0.229-0.451-0.308-0.678  c-0.169-0.486-0.224-0.99-0.106-1.487c0.108-0.447,0.359-0.898,0.796-1.338c0.387-0.394,0.781-0.77,1.186-1.131  c1.206-1.085,2.475-2.024,3.846-2.805c0.213-0.123,0.425-0.244,0.645-0.359c0.211-0.112,0.431-0.22,0.649-0.323  c0.759-0.37,1.544-0.693,2.369-0.97c0.224-0.077,0.453-0.147,0.684-0.218c2.484-0.748,5.001-1.186,7.548-1.384  c0.207-0.015,0.416-0.031,0.623-0.042C29.898,21.573,30.12,23.085,30.12,24.68z"/><path d="M84.22,21.98c-0.2-0.01-0.39-0.01-0.59-0.01c-2.08,0-3.93,0.08-5.78,0.08c-0.93,0-1.87-0.02-2.83-0.08  c-1.83-0.11-3.5-0.25-4.88-0.42c-0.21-0.02-0.41-0.05-0.61-0.08c-0.22-0.03-0.42-0.06-0.62-0.09c-0.09-0.02-0.19-0.04-0.28-0.05  c-3.32-0.58-6.65-0.9-9.99-1.04c-0.2-0.01-0.41-0.02-0.62-0.02c0.18,2.42,0.72,4.61,1.51,6.33c0.27,0.48,0.53,0.96,0.78,1.43  l0.01,0.01c0.41,0.74,0.8,1.47,1.2,2.18c0.06,0.12,0.12,0.23,0.19,0.35c0.69,1.26,1.38,2.51,2.09,3.81c0.56-1.02,1.1-2.01,1.65-3.01  c0.2-0.35,0.39-0.71,0.59-1.07c0.33-0.6,0.67-1.22,1.02-1.84c0.34-0.64,0.7-1.28,1.07-1.95c0.01,0.02,0.02,0.03,0.03,0.05  c0.12,0.23,0.25,0.45,0.37,0.67c1.15,2.11,2.22,4.06,3.39,6.18c0.09,0.17,0.18,0.34,0.28,0.51c0.03,0.07,0.07,0.13,0.1,0.2  c0.05-0.17,0.09-0.34,0.14-0.5c0.16-0.6,0.35-1.18,0.56-1.74c1.27-3.36,3.36-5.94,6.68-7.57c0.54-0.32,1.55-0.7,2.76-1.06  c1.22-0.36,1.65-0.41,2.74-0.65C85.08,22.31,84.76,21.98,84.22,21.98z M72.7,27h-0.05c-1.32-0.13-2.08-0.72-2.15-1.94  c-0.05-1.04,0.91-1.93,2.02-1.93h0.12c1.18,0.08,1.92,0.7,1.99,1.92C74.69,26.12,73.71,27,72.7,27z"/><path d="M59.11,27.153c-0.532,0.966-1.043,1.894-1.551,2.814c-0.183,0.334-0.365,0.664-0.548,0.997  c-0.035,0.064-0.07,0.128-0.103,0.191c-0.037,0.064-0.073,0.125-0.106,0.189c-0.097,0.174-0.191,0.345-0.286,0.519  c-0.018,0.033-0.035,0.064-0.055,0.097c-0.035,0.066-0.073,0.134-0.11,0.2c-0.099,0.183-0.2,0.365-0.301,0.55  c-0.304,0.55-0.609,1.104-0.92,1.67c-0.508-0.922-1.001-1.813-1.489-2.695c-0.035-0.066-0.07-0.13-0.108-0.194  c-0.035-0.066-0.07-0.132-0.108-0.196c-0.317-0.574-0.631-1.144-0.948-1.72c-0.433-0.781-0.871-1.573-1.32-2.387  c0.686-1.426,1.093-3.247,1.093-5.249c0-0.592-0.035-1.164-0.106-1.718c0.708-0.013,1.415-0.02,2.123-0.02  c1.045,0,2.092,0.015,3.137,0.044C57.587,22.929,58.197,25.311,59.11,27.153z"/><path d="M72.34,71.04c-0.01-0.4-0.08-0.84-0.28-1.17c-1.93-3.29-5.69-10.51-6.32-10.51c-0.21,1.15-0.39,1.27-0.55,2.16  c-0.8-6.4-1.62-12-2.42-18.48c-0.04-0.26-0.08-0.49-0.14-0.69c-0.04-0.13-0.08-0.26-0.14-0.37c-0.18-0.38-0.45-0.58-0.82-0.68  c-0.13-0.03-0.26-0.05-0.41-0.07c-0.1,0-0.21-0.01-0.33-0.01h-5.79c0,0,0-0.736,0-0.736c0-0.015,1.772-0.344,1.931-0.412  c0.308-0.133,0.711-0.277,0.929-0.526c0.067-0.076,0.444-0.455,0.42-0.467c-0.02-0.01-0.05-0.02-0.07-0.04  c-0.07-0.05-0.14-0.1-0.21-0.15c-0.04-0.04-0.08-0.07-0.12-0.1c-0.02-0.01-0.04-0.02-0.05-0.03c-0.06-0.05-0.12-0.09-0.17-0.14  l-0.04-0.03c-0.05-0.03-0.1-0.07-0.14-0.12c-0.02-0.01-0.04-0.03-0.08-0.06c-0.08-0.07-0.15-0.13-0.24-0.21  c-0.09-0.08-0.18-0.17-0.27-0.25c-0.1-0.09-0.19-0.18-0.28-0.28c-0.6-0.6-1.13-1.26-1.61-1.95c-0.08-0.12-0.17-0.24-0.25-0.36  c-0.08-0.13-0.16-0.25-0.24-0.38c-0.05-0.08-0.1-0.15-0.15-0.23c-0.07-0.11-0.14-0.23-0.2-0.34c-0.01-0.02-0.02-0.03-0.03-0.04  c-0.01-0.02-0.02-0.03-0.02-0.04c-0.06-0.1-0.12-0.2-0.17-0.3c-0.09-0.14-0.17-0.28-0.25-0.42c-0.14-0.25-0.28-0.51-0.41-0.77  c-0.1-0.17-0.19-0.35-0.28-0.52c-0.01,0.01-0.01,0.02-0.01,0.03c-0.02,0.03-0.04,0.08-0.08,0.13c-0.05,0.07-0.1,0.16-0.15,0.24  c-0.02,0.04-0.04,0.08-0.05,0.09c-0.1,0.19-0.18,0.39-0.25,0.58c-0.01,0.03-0.02,0.05-0.02,0.08c-0.1,0.28-0.18,0.59-0.24,0.9  c-0.02,0.12-0.04,0.23-0.05,0.34c-0.03,0.26-0.01,0.53-0.07,0.79c0,0.01-0.01,0.02-0.02,0.04c-0.05,0.14-0.18,0.25-0.27,0.37  c-0.03,0.03-0.06,0.06-0.12,0.13c-0.02,0.03-0.04,0.05-0.07,0.07c-0.01,0.01-0.02,0.03-0.04,0.04c-0.02,0.02-0.04,0.04-0.07,0.07  c-0.03,0.03-0.07,0.06-0.11,0.09c-0.02,0.02-0.05,0.04-0.07,0.06c-0.04,0.03-0.08,0.06-0.12,0.09c-0.06,0.03-0.11,0.07-0.17,0.1  c-0.06,0.03-0.11,0.06-0.17,0.09c-0.06,0.02-0.12,0.05-0.18,0.07c-0.27,0.1-0.55,0.16-0.85,0.16c-0.84,0-1.59-0.44-2.07-1.1  c-0.11-0.17-0.24-0.35-0.29-0.55c-0.06-0.18-0.04-0.39-0.06-0.58c-0.02-0.07-0.03-0.15-0.04-0.22c-0.02-0.11-0.05-0.23-0.08-0.36  c-0.02-0.08-0.04-0.16-0.06-0.24c-0.01-0.02-0.01-0.04-0.02-0.07c-0.03-0.1-0.06-0.2-0.1-0.3c-0.48-1.34-1.37-2.31-2.42-2.51  c-0.07-0.01-0.15-0.02-0.22-0.03c-0.07,0-0.12-0.01-0.19-0.01c-0.02,0-0.04,0-0.08,0.01c-0.08,0-0.15,0.01-0.24,0.02  c-0.08,0.01-0.15,0.02-0.23,0.05c-1.08,0.27-1.97,1.36-2.39,2.83c-0.17,0.59-0.26,1.23-0.26,1.9c0,0.67,0.09,1.31,0.25,1.89  c0.04,0.1,0.08,0.19,0.13,0.28c0.47,0.96,1.25,1.74,2.2,2.22c0.14,0.07,0.28,0.13,0.43,0.19c0.14,0.05,0.31,0.06,0.37,0.18  c0.02,0.03,0.03,0.07,0.03,0.11v0.62H44.2c-3.06,0-5.27,0-5.44,0.02c-0.96,0.07-1.37,0.45-1.49,1.41c-0.32,2.38-0.63,4.76-0.92,7.15  c-0.51,4.24-1.01,7.6-1.53,11.92c-0.16-0.9-0.31-1.04-0.48-2.02c-0.32,0-1.35,1.72-2.54,3.86c-1.82,0.36-3.26,0.79-4.43,1.35  c-3.59-0.34-7.4,0.07-10.49,1.2c-0.31-2.51-0.74-5.16-1.16-7.79c-0.85-5.25-1.66-10.21-1.41-13.2c0-0.03,0-0.06,0.01-0.09  c0.08-0.05,0.15-0.1,0.23-0.16c1.51-1.31,2.5-3.51,2.5-6.01c0-0.93-0.14-1.82-0.39-2.64c-0.25-0.07-0.5-0.16-0.74-0.27  c-1.57-0.66-2.97-1.85-4.16-3.73c-0.12-0.19-0.24-0.38-0.36-0.59c-0.18,0.21-0.36,0.41-0.54,0.6c-0.54,0.56-1.07,1.08-1.44,1.69  c-1.17,1.87-2.56,4.78-2.78,7.45c-0.04,0.57-0.04,1.12,0.03,1.65c0.09,0.67,0.29,1.3,0.62,1.89c0.5,0.86,1.52,1.43,2.52,1.6  c0.2,0.04,0.4,0.05,0.6,0.05c0.28,0,0.55-0.03,0.81-0.09c0.29-0.06,0.58-0.15,0.85-0.27c0.07-0.03,0.14-0.06,0.2-0.09  c-0.04,3.21,0.7,7.75,1.47,12.53c0.45,2.75,0.91,5.63,1.23,8.32c-3.21,1.72-5.07,4.37-4.89,7.04c0.15,2.35,1.91,4.25,4.83,5.19  c0.1,0.04,0.2,0.05,0.31,0.05c0.31,0,0.62-0.15,0.81-0.41c1.47-2.05,1.55-6.01,1.09-10.66c2.21-0.9,4.95-1.36,7.69-1.37  c-0.43,0.49-0.8,1.05-1.13,1.68c-1.05,0.13-2.01,0.38-2.75,0.74c-2.18,1.07-2.52,2.48-2.52,3.22c-0.01,0.74,0.31,2.14,2.46,3.22  c1.83,0.93,4.5,1.37,7.14,1.33c0,0.44,0.01,0.87,0.01,1.26c0.01,0.69,0.33,1.27,1.06,1.45c0.45,0.11,0.92,0.16,1.39,0.16  c13.13,0.01,39.82,0.02,40.03,0c1.29-0.08,1.84-0.65,1.85-1.95C72.36,75.9,72.36,73.03,72.34,71.04z M14.77,77  c-1.66-0.72-2.61-1.82-2.7-3.15c-0.11-1.65,1.09-3.42,3.14-4.72C15.51,72.48,15.48,75.34,14.77,77z M28,74.99  c-2.32,0.03-4.69-0.34-6.23-1.12c-0.85-0.43-1.36-0.97-1.36-1.43c0-0.47,0.53-1,1.4-1.43c0.3-0.15,0.67-0.27,1.09-0.37  c-0.17,1.38,0.48,2.71,1.69,3.32c0.95,0.47,2.21,0.67,3.41,0.58V74.99z M28.02,70.68c0,0.57-0.01,1.2-0.01,1.85  c-0.89,0.09-1.86-0.03-2.53-0.36c-0.62-0.31-0.72-1.07-0.51-1.66c0.02-0.04,0.04-0.09,0.05-0.14c1.04-0.04,2.11,0.04,3.01,0.23  C28.02,70.63,28.02,70.65,28.02,70.68z M28.93,68.75c-0.85-0.22-1.83-0.35-2.83-0.39c0.42-0.54,0.95-1,1.66-1.4  c0.67,0.08,1.34,0.18,1.98,0.32C29.46,67.8,29.18,68.29,28.93,68.75z M51.23,44.81c0.63,0,1.15,0.52,1.15,1.15s-0.52,1.14-1.15,1.14  s-1.14-0.51-1.14-1.14S50.6,44.81,51.23,44.81z M48.21,44.87c0.63,0,1.15,0.51,1.15,1.14s-0.52,1.15-1.15,1.15s-1.14-0.52-1.14-1.15  S47.58,44.87,48.21,44.87z M45.51,46.21c0.63,0,1.14,0.51,1.14,1.14s-0.51,1.15-1.14,1.15s-1.15-0.52-1.15-1.15  C44.37,46.72,44.88,46.21,45.51,46.21z M43.65,48.6c0.63,0,1.15,0.52,1.15,1.15s-0.52,1.14-1.15,1.14s-1.14-0.51-1.14-1.14  S43.02,48.6,43.65,48.6z M41.83,52.69c0-0.64,0.52-1.15,1.15-1.15s1.14,0.51,1.14,1.15c0,0.63-0.51,1.14-1.14,1.14  S41.83,53.32,41.83,52.69z M43.88,57.24c-0.64,0-1.15-0.52-1.15-1.15c0-0.63,0.51-1.14,1.15-1.14c0.63,0,1.14,0.51,1.14,1.14  C45.02,56.72,44.51,57.24,43.88,57.24z M45.93,59.46c-0.63,0-1.15-0.52-1.15-1.15s0.52-1.14,1.15-1.14s1.14,0.51,1.14,1.14  S46.56,59.46,45.93,59.46z M48.73,60.6c-0.64,0-1.15-0.51-1.15-1.15c0-0.63,0.51-1.14,1.15-1.14c0.63,0,1.14,0.51,1.14,1.14  C49.87,60.09,49.36,60.6,48.73,60.6z M51.86,60.52c-0.04-0.03-0.07-0.07-0.11-0.11c-0.9-0.98-0.8-1.94-0.67-2.17  c0-0.01,0.01-0.02,0.01-0.02c0.15,0.14,0.28,0.29,0.43,0.43l0.06,0.06c0.32,0.25,0.81,0.48,1.05,0.78c0.21,0.26,0.13,0.8,0.28,1.12  C52.55,60.65,52.03,60.7,51.86,60.52z M49.83,57.4c-2.6,0-4.71-2.11-4.71-4.72s2.11-4.72,4.71-4.72c2.61,0,4.72,2.11,4.72,4.72  S52.44,57.4,49.83,57.4z M53.99,48.35c-0.63,0-1.15-0.52-1.15-1.15s0.52-1.14,1.15-1.14s1.14,0.51,1.14,1.14  S54.62,48.35,53.99,48.35z"/><path d="M24.398,35.981c-0.097,0.161-0.242,4.453-0.308,4.998c-0.189,1.496-0.508,3.098-1.582,4.235  c-0.768,0.818-1.833,1.179-2.915,1.179c-0.638,0-1.28-0.125-1.87-0.356c-0.394-0.156-0.733-0.363-1.052-0.565  c-0.422-0.268-0.807-0.524-1.225-0.629c0.526-0.563,0.979-1.232,1.333-1.98c0.317-0.667,0.559-1.397,0.706-2.169  c0.114-0.592,0.176-1.212,0.176-1.848c0-0.854-0.108-1.672-0.312-2.442c0.748,0.169,1.529,0.246,2.336,0.246  c0.579,0,1.17-0.04,1.778-0.112C22.409,36.426,23.391,36.23,24.398,35.981z"/><path d="M43.648,30.611c-0.037,0.009-0.073,0.02-0.108,0.035c-0.07,0.026-0.141,0.053-0.211,0.084s-0.139,0.066-0.207,0.101  c-0.033,0.018-0.068,0.035-0.101,0.057c-0.033,0.02-0.066,0.042-0.099,0.062c-0.033,0.022-0.066,0.044-0.099,0.066  c-0.066,0.044-0.13,0.09-0.191,0.143c-0.033,0.026-0.064,0.053-0.095,0.079c-0.031,0.026-0.062,0.053-0.092,0.081  c-0.062,0.057-0.121,0.114-0.178,0.176c-0.059,0.062-0.117,0.125-0.172,0.191c-0.051,0.059-0.099,0.121-0.145,0.185  c-0.09,0.117-0.174,0.242-0.253,0.374c-0.029,0.044-0.055,0.09-0.081,0.136c-0.042,0.07-0.081,0.143-0.119,0.22  c-0.042,0.079-0.081,0.158-0.119,0.242c-0.044,0.097-0.086,0.196-0.125,0.299c-0.026,0.068-0.053,0.136-0.075,0.207  c-0.015,0.037-0.026,0.075-0.037,0.112c-0.029,0.079-0.053,0.161-0.077,0.244c-0.185,0.638-0.277,1.313-0.277,2.013  c0,0.697,0.092,1.373,0.275,2.009l0.015,0.046c0.026,0.062,0.053,0.121,0.079,0.18c0.277,0.596,0.66,1.135,1.126,1.584  c-0.739-0.394-1.437-0.871-2.092-1.428c-0.524-0.442-1.019-0.935-1.485-1.476c-0.323-0.381-0.524-1.252-0.293-1.731  c0.761-1.575,1.591-3.124,2.471-4.756c0.031-0.059,0.064-0.121,0.097-0.18c0.323-0.598,0.653-1.212,0.99-1.844  c0.026-0.048,0.079-0.079,0.134-0.079c0,0,0,0,0.004,0c0.055,0,0.103,0.029,0.132,0.077l0.983,1.738L43.648,30.611z"/><path d="M52.912,31.874c-0.66,0.891-1.078,2.125-1.109,3.494l-0.117,0.163c-0.264,0.374-0.618,0.649-1.027,0.799  c-0.227,0.084-0.462,0.128-0.702,0.128c-0.68,0-1.309-0.339-1.729-0.926c-0.092-0.13-0.196-0.279-0.231-0.409  c-0.02-0.066-0.022-0.154-0.026-0.253c-0.004-0.086-0.009-0.183-0.024-0.282c-0.011-0.073-0.024-0.147-0.037-0.22  c-0.013-0.075-0.026-0.147-0.044-0.222c-0.022-0.101-0.046-0.202-0.073-0.301l2.18-4.325l0.678-1.344  c0.024-0.051,0.075-0.084,0.132-0.084h0.009c0.053,0,0.101,0.026,0.128,0.075c0.273,0.451,0.535,0.915,0.785,1.382  c0.326,0.603,0.636,1.212,0.942,1.808C52.734,31.528,52.822,31.7,52.912,31.874z"/><path d="M74.145,25.192c-0.077,0.697-0.662,1.219-1.344,1.232l-0.869-2.488c0.273-0.207,0.62-0.315,0.988-0.273  c0.332,0.035,0.625,0.189,0.84,0.409c-0.229-0.022-0.431,0.143-0.455,0.37c-0.026,0.229,0.139,0.433,0.367,0.458  c0.187,0.022,0.359-0.086,0.427-0.251C74.147,24.823,74.164,25.005,74.145,25.192z"/><path d="M72.079,35.035c-0.385,1.445-0.579,2.944-0.579,4.457c0,0.902,0.07,1.804,0.207,2.682c0.004,0.04-0.004,0.084-0.029,0.117  c-0.029,0.035-0.064,0.057-0.108,0.059c-2.004,0.222-4.092,0.321-5.958,0.407c-0.079,0.002-0.156,0.004-0.233,0.009  c-0.059,0.002-0.117,0.007-0.176,0.007c-1.54,0-2.556-0.9-3.63-1.852c-0.161-0.141-0.321-0.282-0.484-0.425  c-0.882-0.755-1.758-1.518-2.6-2.264c-0.057-0.048-0.114-0.099-0.172-0.15c-0.057-0.051-0.114-0.101-0.172-0.15  c0-0.002,0-0.002,0-0.002c-0.037-0.031-0.073-0.064-0.108-0.095c-0.702-0.62-1.377-1.223-2.006-1.786  c-0.271-0.242-0.568-0.878-0.407-1.186c0.306-0.601,0.618-1.197,0.937-1.795c0.211-0.398,0.425-0.799,0.64-1.199  c0.022-0.042,0.046-0.081,0.066-0.123c0.037-0.066,0.073-0.13,0.108-0.196s0.07-0.132,0.108-0.2  c0.235-0.431,0.471-0.867,0.713-1.309c0.073-0.134,0.145-0.268,0.22-0.405c0.297-0.548,0.601-1.102,0.909-1.668  c0.026-0.051,0.079-0.081,0.134-0.081c0.013,0,0.029,0.002,0.04,0.004c0.042,0.011,0.075,0.037,0.097,0.075  c0.103,0.191,0.209,0.383,0.315,0.57c0.352,0.645,0.7,1.276,1.043,1.903c0.942,1.714,1.863,3.397,2.853,5.205l2.251-4.118  l1.423-2.607l0.508-0.928c0.026-0.048,0.079-0.079,0.134-0.079c0.013,0,0.026,0,0.035,0.007c0.042,0.004,0.079,0.033,0.101,0.073  c0.983,1.784,1.903,3.458,2.798,5.095c0.339,0.616,0.673,1.228,1.008,1.835C72.085,34.958,72.092,34.998,72.079,35.035z"/><path d="M93.384,24.334l-0.163,0.768c-0.176,0.838-0.376,1.793-0.715,2.702c-2.026,5.463-5.144,9.031-10.107,11.559  c-0.163,0.084-0.326,0.165-0.488,0.242c-0.931,0.455-1.857,0.849-2.761,1.175c-1.789,0.647-3.766,1.111-6.041,1.423  c-0.205,0.026-0.414,0.055-0.616,0.079h-0.02c-0.073,0-0.141-0.053-0.15-0.13c-0.139-0.88-0.207-1.773-0.207-2.658  c0-1.256,0.139-2.512,0.409-3.733c0.064-0.227,0.167-0.627,0.244-0.955c0.075-0.323,0.158-0.642,0.251-0.955  c1.126-3.846,3.535-6.756,7.174-8.666c1.525-0.801,3.249-1.408,5.128-1.808c1.571-0.341,3.232-0.532,4.93-0.568  c0.216-0.004,0.431-0.009,0.645-0.009c0.466,0,0.933,0.013,1.408,0.037c0.07,0.007,0.132,0.059,0.141,0.13  c0.013,0.07-0.026,0.141-0.092,0.169c-0.185,0.073-0.37,0.15-0.548,0.227L91.69,23.41c-0.275,0.128-0.574,0.266-0.869,0.416  c-0.299,0.145-0.594,0.299-0.878,0.458c-0.772,0.425-1.531,0.898-2.262,1.417c0.275,0.2,0.546,0.431,0.812,0.682  c0.147,0.143,0.187,0.367,0.088,0.55c-0.077,0.15-0.235,0.246-0.409,0.246c-0.026,0-0.055-0.002-0.084-0.007  c-0.35-0.07-0.713-0.106-1.078-0.106c-0.409,0-0.823,0.044-1.234,0.13c-0.444,0.385-0.871,0.783-1.269,1.184  c0.277,0.271,0.537,0.563,0.77,0.873c0.125,0.163,0.13,0.392,0.007,0.554c-0.088,0.121-0.229,0.189-0.374,0.189  c-0.053,0-0.106-0.009-0.156-0.029c-0.44-0.161-0.915-0.264-1.419-0.315c-0.715,0.856-1.285,1.685-1.652,2.418  c0.152,0.024,0.273,0.035,0.376,0.035c0.275,0,0.429-0.088,0.733-0.284c0.101-0.244,0.185-0.477,0.244-0.7  c0.086-0.301,0.147-0.609,0.178-0.917c0-0.009,0.002-0.022,0.007-0.031c0.037-0.189,0.18-0.337,0.37-0.374  c0.029-0.004,0.057-0.007,0.086-0.007c0.169,0,0.334,0.099,0.414,0.257c0.024,0.048,0.035,0.073,0.048,0.101  c0.2,0.416,0.367,0.847,0.493,1.278c0.007,0.018,0.013,0.037,0.015,0.055c0.169-0.139,0.33-0.284,0.477-0.431  c0.416-0.411,0.77-0.873,1.054-1.366c0.262-0.458,0.458-0.931,0.587-1.417c0.055-0.205,0.231-0.339,0.436-0.345  c0.216,0,0.387,0.13,0.451,0.319c0.084,0.262,0.154,0.524,0.22,0.812c0.002,0.018,0.009,0.035,0.011,0.055  c1.307-0.86,2.246-2.064,2.655-3.41c0.059-0.191,0.24-0.326,0.44-0.326c0.211,0,0.392,0.139,0.447,0.339  c0.013,0.042,0.026,0.088,0.037,0.134c0.339-0.334,0.693-0.689,1.069-1.065l0.477-0.477c0.029-0.029,0.053-0.053,0.075-0.075  l0.042-0.042c0.029-0.031,0.066-0.046,0.106-0.046c0.026,0,0.053,0.007,0.077,0.02C93.368,24.196,93.399,24.268,93.384,24.334z"/><text x="0" y="115" fill="#000000" font-size="5px" font-weight="bold" font-family="'Helvetica Neue', Helvetica, Arial-Unicode, Arial, Sans-serif">Created by TNS</text><text x="0" y="120" fill="#000000" font-size="5px" font-weight="bold" font-family="'Helvetica Neue', Helvetica, Arial-Unicode, Arial, Sans-serif">from the Noun Project</text></svg>