<svg xmlns="http://www.w3.org/2000/svg" xmlns:xlink="http://www.w3.org/1999/xlink" version="1.1" x="0px" y="0px" viewBox="0 0 100 125" enable-background="new 0 0 100 100" xml:space="preserve"><path d="M55.048,58.842"/><path d="M49.755,83.474c-15.585,0-29.974-7.459-36.719-19.021c-1.562-1.942-4.482-4.883-6.042-5.277  c-3.39-0.863-6.361-4.792-6.361-8.408v-1.927c0-3.618,2.971-7.547,6.359-8.411c1.58-0.4,4.569-3.353,6.174-5.305  c6.793-11.428,21.132-18.802,36.589-18.802c15.583,0,29.536,7.123,36.465,18.601c1.731,2.035,4.897,5.104,6.48,5.505  c3.388,0.864,6.361,4.792,6.361,8.411v1.927c0,3.616-2.974,7.545-6.362,8.408c-1.429,0.363-4.599,3.458-6.762,6.159  C78.911,76.526,65.062,83.474,49.755,83.474L49.755,83.474z M49.755,20.896c-13.936,0-26.784,6.556-32.732,16.698l-0.197,0.282  c-0.812,1.003-5.053,6.061-8.707,6.989c-1.387,0.353-2.913,2.433-2.913,3.974v1.927c0,1.542,1.526,3.619,2.915,3.972  c3.666,0.933,7.811,5.998,8.605,7.004l0.187,0.274C22.817,72.273,35.709,78.9,49.755,78.9c13.792,0,26.195-6.17,32.369-16.099  l0.151-0.214c0.91-1.147,5.635-6.917,9.296-7.85c1.392-0.353,2.917-2.43,2.917-3.972v-1.927c0-1.542-1.525-3.622-2.915-3.974  c-3.633-0.924-8.113-6.11-8.974-7.139l-0.212-0.297C76.404,27.387,63.596,20.896,49.755,20.896L49.755,20.896z"/><path d="M81.073,53.841c-1.726,0-3.119-1.393-3.119-3.119c0-1.728,1.394-3.12,3.119-3.12c1.727,0,3.12,1.393,3.12,3.12  C84.193,52.448,82.8,53.841,81.073,53.841L81.073,53.841z M70.675,53.841c-1.726,0-3.119-1.393-3.119-3.119  c0-1.728,1.394-3.12,3.119-3.12c1.728,0,3.12,1.393,3.12,3.12C73.795,52.448,72.402,53.841,70.675,53.841L70.675,53.841z   M60.277,53.841c-1.727,0-3.119-1.393-3.119-3.119c0-1.728,1.393-3.12,3.119-3.12s3.119,1.393,3.119,3.12  C63.396,52.448,62.004,53.841,60.277,53.841L60.277,53.841z"/><path d="M74.355,44.003c-1.727,0-3.119-1.393-3.119-3.119c0-1.727,1.393-3.12,3.119-3.12s3.119,1.394,3.119,3.12  C77.475,42.61,76.082,44.003,74.355,44.003L74.355,44.003z M63.957,44.003c-1.727,0-3.12-1.393-3.12-3.119  c0-1.727,1.394-3.12,3.12-3.12s3.119,1.394,3.119,3.12C67.076,42.61,65.684,44.003,63.957,44.003L63.957,44.003z"/><path d="M74.604,63.823c-1.726,0-3.118-1.393-3.118-3.12c0-1.726,1.393-3.118,3.118-3.118c1.728,0,3.12,1.393,3.12,3.118  C77.725,62.431,76.332,63.823,74.604,63.823L74.604,63.823z M64.207,63.823c-1.727,0-3.119-1.393-3.119-3.12  c0-1.726,1.393-3.118,3.119-3.118s3.12,1.393,3.12,3.118C67.327,62.431,65.934,63.823,64.207,63.823L64.207,63.823z M53.809,63.823  c-1.727,0-3.12-1.393-3.12-3.12c0-1.726,1.393-3.118,3.12-3.118s3.119,1.393,3.119,3.118C56.928,62.431,55.535,63.823,53.809,63.823  L53.809,63.823z"/><path d="M62.107,33.834c-1.706,0-3.12-1.416-3.12-3.119c0-1.727,1.414-3.12,3.12-3.12c1.727,0,3.119,1.394,3.119,3.12  C65.227,32.419,63.834,33.834,62.107,33.834L62.107,33.834z"/><path d="M60.837,73.472c-1.703,0-3.119-1.394-3.119-3.119s1.416-3.12,3.119-3.12c1.727,0,3.12,1.395,3.12,3.12  S62.563,73.472,60.837,73.472L60.837,73.472z M50.439,73.472c-1.704,0-3.119-1.394-3.119-3.119s1.415-3.12,3.119-3.12  c1.727,0,3.119,1.395,3.119,3.12S52.166,73.472,50.439,73.472L50.439,73.472z M40.041,73.472c-1.726,0-3.12-1.394-3.12-3.119  s1.394-3.12,3.12-3.12c1.727,0,3.12,1.395,3.12,3.12S41.768,73.472,40.041,73.472L40.041,73.472z"/></svg>