<svg xmlns="http://www.w3.org/2000/svg" xmlns:xlink="http://www.w3.org/1999/xlink" version="1.1" x="0px" y="0px" viewBox="0 0 100 125" enable-background="new 0 0 100 100" xml:space="preserve"><path d="M68.883,16.742c0.702-1.146,1.39-2.233,2.012-3.146l-1.964-0.377c-0.629,0.953-1.299,2.026-1.97,3.132  c-1.33-0.236-2.837-0.45-4.545-0.644c-5.502-0.625-12.236-0.911-16.165-0.911c-3.3,0-10.168,0-16.133,0.562  c-6.142,0.577-12.421,1.685-12.44,5.512c0,0.024,0,0.048,0,0.073c0,0.001,0,0.001,0,0.001c0.001,0.042,0.005,0.084,0.009,0.124  c0.066,0.69,1.622,16.817,3.287,32.875c3.483,33.593,3.96,34.093,4.562,34.72c2.747,2.87,9.643,5.867,20.853,5.867  c0.311,0,0.628-0.001,0.947-0.005C56.44,94.39,63.791,92.186,67,88.628c0.232-0.258,0.378-0.584,0.416-0.929l7.396-66.606  c0.004-0.045,0.01-0.09,0.01-0.136c0.003-0.03,0.003-0.06,0.003-0.088C74.813,18.991,73.014,17.696,68.883,16.742z M70.092,20.519  c-1.085,0.405-2.476,0.818-4.143,1.207c0.363-0.633,0.744-1.293,1.135-1.964C68.446,20.028,69.421,20.29,70.092,20.519z   M31.384,18.581c5.57-0.462,11.618-0.462,14.867-0.462c2.647,0,8.694,0.161,14.572,0.758c1.696,0.173,3.108,0.358,4.317,0.547  c-0.574,0.991-1.117,1.947-1.601,2.806c-4.363,0.816-10.165,1.426-17.289,1.426c-3.342,0-9.148-0.317-14.582-1.024  c-5.717-0.744-8.548-1.589-9.938-2.198C22.799,19.896,25.354,19.082,31.384,18.581z M64.172,86.765  c-2.763,2.599-9.284,4.324-16.884,4.438c-8.465,0.136-16.053-1.715-19.111-4.603c-0.964-3.899-4.503-38.285-6.877-62.775  c7.834,2.888,24.755,3.153,24.952,3.153c3.413,0,8.928-0.239,14.178-0.914c0.367-0.047,0.718-0.097,1.072-0.147L52.01,43.993  c-2.209,0.187-4.254,0.289-5.803,0.289c-5.476,0-15.946-1.447-19.903-3.074c-0.419-0.172-0.899-0.113-1.264,0.157  s-0.561,0.711-0.518,1.162c0.01,0.102,0.995,10.347,2.074,20.573c2.229,21.112,2.624,21.895,3.082,22.372  c3.302,3.449,10.805,4.309,16.726,4.309c7.585,0,13.699-1.021,16.358-3.966c0.183-0.205,0.295-0.459,0.324-0.729l4.433-42.177  c0.049-0.45-0.142-0.893-0.505-1.167c-0.36-0.273-0.839-0.338-1.26-0.171c-2.438,0.97-7.1,1.743-11.546,2.212l8.947-17.041  c0.012-0.024,0.255-0.472,0.645-1.181c2.965-0.509,5.431-1.132,7.373-1.866L64.172,86.765z M40.62,73.063  c0.023-0.057,0.055-0.108,0.095-0.15c0.041-0.044,0.092-0.079,0.148-0.105l10.804-4.804c0.119-0.056,0.249-0.055,0.362-0.01  l5.354,2.05c0.071,0.028,0.132,0.07,0.178,0.123c0.032,0.035,0.059,0.076,0.08,0.121l4.753,10.645  c0.116,0.123,0.159,0.309,0.094,0.479c-0.046,0.126-0.143,0.217-0.255,0.262c-0.005,0.004-0.009,0.006-0.014,0.007l-10.804,4.805  c-0.058,0.027-0.116,0.038-0.174,0.042c-0.058,0-0.117-0.007-0.174-0.028c-0.001,0-0.001,0-0.001,0  c-0.002-0.001-0.003-0.005-0.005-0.005l-5.362-2.051c-0.06-0.022-0.111-0.055-0.153-0.096c-0.043-0.041-0.079-0.09-0.104-0.147  L40.63,73.42c-0.026-0.06-0.039-0.119-0.04-0.181C40.588,73.182,40.598,73.12,40.62,73.063z M34.521,71.771  c-0.1,0.025-0.201,0.008-0.283-0.044l-3.89-2.314c-0.052-0.033-0.093-0.074-0.123-0.119c-0.021-0.034-0.036-0.068-0.045-0.106  l-2.259-8.925c-0.075-0.113-0.083-0.263-0.009-0.385c0.054-0.091,0.141-0.15,0.234-0.172c0.004,0,0.007-0.001,0.01-0.003  l9.059-2.284c0.048-0.012,0.096-0.015,0.143-0.008c0.044,0.006,0.088,0.021,0.13,0.044c0,0.001,0,0.001,0,0.001  c0.001,0.002,0.002,0.002,0.004,0.003l3.896,2.319c0.043,0.025,0.079,0.058,0.106,0.097c0.027,0.035,0.048,0.081,0.061,0.129  l2.29,9.04c0.012,0.047,0.014,0.096,0.007,0.144c-0.007,0.045-0.021,0.091-0.047,0.131c-0.025,0.043-0.058,0.078-0.095,0.106  c-0.038,0.03-0.081,0.05-0.13,0.062L34.521,71.771z M62.497,59.11c-0.021,0.035-0.047,0.067-0.081,0.095  c-0.001,0-0.003,0.001-0.003,0.004l-3.251,2.497c-0.036,0.028-0.075,0.048-0.114,0.058c-0.043,0.011-0.085,0.016-0.13,0.01  l-8.382-1.084c-0.044-0.007-0.086-0.021-0.123-0.042c-0.036-0.021-0.069-0.05-0.097-0.086c-0.026-0.033-0.045-0.074-0.057-0.113  c-0.011-0.041-0.014-0.084-0.008-0.13l1.087-8.363c0.011-0.094,0.06-0.173,0.13-0.223l3.244-2.496  c0.044-0.033,0.094-0.054,0.142-0.063c0.033-0.006,0.07-0.008,0.104-0.002l8.273,1.069c0.119-0.024,0.249,0.02,0.329,0.123  c0.059,0.076,0.078,0.166,0.064,0.251c0,0.003,0,0.007,0,0.01l-1.086,8.366C62.534,59.034,62.519,59.072,62.497,59.11z   M71.848,12.266l-1.753-0.729c0.248-0.339,0.482-0.642,0.7-0.904l1.534,1.042C72.18,11.848,72.02,12.043,71.848,12.266z   M72.552,11.415l-1.512-1.099c0.101-0.106,0.197-0.204,0.289-0.289c0.197-0.186,0.395-0.355,0.588-0.518l1.289,1.332  c-0.202,0.165-0.406,0.338-0.611,0.531C72.581,11.384,72.566,11.402,72.552,11.415z M71.123,13.266l-1.97-0.379  c0.248-0.37,0.487-0.719,0.719-1.041l1.748,0.726C71.46,12.787,71.295,13.017,71.123,13.266z M73.502,10.567L72.17,9.274  c0.282-0.237,0.562-0.449,0.842-0.643l1.212,1.4C73.986,10.19,73.746,10.37,73.502,10.567z M90.096,6.866  c-0.083,0.008-8.272,0.888-11.004,1.462c-0.174,0.036-0.354,0.072-0.537,0.108c-0.827,0.166-1.707,0.342-2.633,0.707l-1.265-1.461  c1.317-0.612,2.531-0.855,3.537-1.055c0.178-0.035,0.349-0.069,0.517-0.104c2.821-0.593,10.846-1.456,11.186-1.492L90.096,6.866z   M74.313,7.849l1.25,1.445c-0.335,0.149-0.677,0.325-1.024,0.537l-1.22-1.409C73.655,8.204,73.987,8.015,74.313,7.849z   M53.745,71.516l-1.01-2.261l3.273,1.255L53.745,71.516z M40.936,60.536l1.982,7.831l-3.006-1.79l-1.377-5.437L40.936,60.536z   M46.401,74.781l-4.139-1.584l9.359-4.162l1.274,2.856L46.401,74.781z M46.102,83.401l-4.171-9.341l4.139,1.584l2.896,6.483  L46.102,83.401z M56.06,78.974l-6.249,2.777l-2.784-6.235l6.25-2.779L56.06,78.974z M39.537,67.205l3.007,1.79l-7.848,1.979  l-0.606-2.395L39.537,67.205z M49.342,82.974l1.01,2.259l-3.273-1.252L49.342,82.974z M38.355,60.432l-0.479-1.893l2.378,1.415  L38.355,60.432z M32.198,61.986l-3.022-1.789l7.864-1.98l0.606,2.396L32.198,61.986z M39.149,66.549l-5.239,1.322l-1.325-5.231  l5.24-1.32L39.149,66.549z M33.2,68.049l-2.4,0.604l-1.979-7.815l3.003,1.775L33.2,68.049z M33.38,68.758l0.48,1.894l-2.379-1.415  L33.38,68.758z M59.676,53.366l-0.628,4.838L54.2,57.577l0.628-4.839L59.676,53.366z M59.619,58.944l1.756,0.227l-1.984,1.525  L59.619,58.944z M53.923,58.205l5.04,0.654l-0.288,2.215l-7.261-0.939L53.923,58.205z M53.52,57.684l-2.509,1.928l0.94-7.244  l2.221,0.287L53.52,57.684z M56.687,79.708l4.155,1.573l-9.378,4.172l-1.276-2.855L56.687,79.708z M62.867,51.315l-0.942,7.259  l-2.221-0.285l0.653-5.03L62.867,51.315z M54.121,72.36l2.863-1.273l4.163,9.32l-4.13-1.563L54.121,72.36z M59.952,52.734  l-5.039-0.65l0.288-2.216l7.245,0.937L59.952,52.734z M54.257,51.998l-1.756-0.227l1.984-1.527L54.257,51.998z"/><text x="0" y="115" fill="#000000" font-size="5px" font-weight="bold" font-family="'Helvetica Neue', Helvetica, Arial-Unicode, Arial, Sans-serif">Created by Ryan Mckenzie</text><text x="0" y="120" fill="#000000" font-size="5px" font-weight="bold" font-family="'Helvetica Neue', Helvetica, Arial-Unicode, Arial, Sans-serif">from the Noun Project</text></svg>