<svg xmlns="http://www.w3.org/2000/svg" xmlns:xlink="http://www.w3.org/1999/xlink" version="1.1" x="0px" y="0px" viewBox="0 0 100 125" enable-background="new 0 0 100 100" xml:space="preserve"><path d="M94.693,53.116c0.517-5.394-7.622-10.637-14.926-13.948c-8.298-3.761-19.055-6.873-29.89-8.931  c-1.948-1.143-4.315-1.93-7.136-2.4c-3.563-0.595-6.778-0.37-9.593,0.43c-1.16-0.05-2.297-0.062-3.392-0.062  c-11.315,0-18.747,2.732-21.76,7.672C3.346,43.5,4.86,57.013,9.314,64.295c5.118,8.369,14.325,13.88,26.626,15.933  c3.961,0.661,8.075,0.997,12.227,0.997c11.106,0,21.728-2.383,29.911-6.715C87.464,69.544,93.907,61.35,94.693,53.116z M90.95,53.05  c-0.032,0.196-0.098,0.394-0.199,0.591c-1.497,2.936-10.506,5.729-25.952,5.729c-7.451,0-15.367-0.664-22.891-1.92  c-11.003-1.835-19.746-4.683-25.281-8.233c-3.219-2.064-7.522-5.52-6.241-9.396c2.108-6.376,8.16-7.403,16.038-7.846  c-2.85,2.538-5.704,5.59-4.789,9.249c0.762,3.051,6.475,6.542,16.637,8.239c10.164,1.695,16.468,0.126,18.126-2.75  c2.418-4.195,0.75-7.968-1.526-11.553c8.545,1.965,16.73,4.618,23.316,7.604C88.126,47.267,91.273,51.118,90.95,53.05z"/><text x="0" y="115" fill="#000000" font-size="5px" font-weight="bold" font-family="'Helvetica Neue', Helvetica, Arial-Unicode, Arial, Sans-serif">Created by Daniel Gamage</text><text x="0" y="120" fill="#000000" font-size="5px" font-weight="bold" font-family="'Helvetica Neue', Helvetica, Arial-Unicode, Arial, Sans-serif">from the Noun Project</text></svg>