<svg xmlns:dc="http://purl.org/dc/elements/1.1/" xmlns:cc="http://creativecommons.org/ns#" xmlns:rdf="http://www.w3.org/1999/02/22-rdf-syntax-ns#" xmlns:svg="http://www.w3.org/2000/svg" xmlns="http://www.w3.org/2000/svg" xmlns:sodipodi="http://sodipodi.sourceforge.net/DTD/sodipodi-0.dtd" xmlns:inkscape="http://www.inkscape.org/namespaces/inkscape" viewBox="0 0 100 125" version="1.1" x="0px" y="0px"><g transform="translate(0,-952.36216)"><path d="m 5.0000015,981.99968 0,4.34979 44.2500455,0 0,-1.80001 1.500012,0 0,1.80001 44.24994,0 0,-4.34979 -89.9999975,0 z m 0,5.85004 0,13.79988 2.249996,0 0,1.4998 -2.249996,0 0,13.7252 19.6500515,0 0,-29.02488 -19.6500515,0 z m 21.1499635,0 0,13.79988 23.100083,0 0,-1.80006 1.500011,0 0,1.80006 23.09998,0 0,-13.79988 -23.09998,0 0,1.79966 -1.500011,0 0,-1.79966 -23.100083,0 z m 49.200085,0 0,29.02488 19.649949,0 0,-13.7252 -2.24991,0 0,-1.4998 2.24991,0 0,-13.79988 -19.649949,0 z m -26.100002,4.3498 1.500011,0 0,5.09992 -1.500011,0 0,-5.09992 z m -23.100083,10.94988 0,13.7252 23.100083,0 0,-1.7249 1.500011,0 0,1.7249 23.09998,0 0,-13.7252 -23.09998,0 0,1.8001 -1.500011,0 0,-1.8001 -23.100083,0 z m 23.100083,4.3502 1.500011,0 0,5.0999 -1.500011,0 0,-5.0999 z m -44.2500465,10.95 0,4.275 89.9999975,0 0,-4.275 -44.24994,0 0,1.7249 -1.500012,0 0,-1.7249 -44.2500455,0 z" style="" fill="#000000" fill-opacity="1" fill-rule="evenodd" stroke="none"/></g><text x="0" y="115" fill="#000000" font-size="5px" font-weight="bold" font-family="'Helvetica Neue', Helvetica, Arial-Unicode, Arial, Sans-serif">Created by anbileru adaleru</text><text x="0" y="120" fill="#000000" font-size="5px" font-weight="bold" font-family="'Helvetica Neue', Helvetica, Arial-Unicode, Arial, Sans-serif">from the Noun Project</text></svg>